<svg width="455" height="454" viewBox="0 0 455 454" fill="none" xmlns="http://www.w3.org/2000/svg">
<path d="M227.484 453.798C352.799 453.798 454.388 352.227 454.388 226.933C454.388 101.639 352.799 0.0675659 227.484 0.0675659C102.168 0.0675659 0.579956 101.639 0.579956 226.933C0.579956 352.227 102.168 453.798 227.484 453.798Z" fill="#122FB7"/>
<path d="M183.038 56.9677V126.719H102.455V182.538H183.038V183.836C183.565 174.57 185.014 165.38 187.366 156.402C190.385 144.974 196.2 134.476 204.287 125.854C213.102 116.877 223.999 110.218 236.009 106.469C240.579 104.925 245.25 103.696 249.988 102.791V67.8285L183.038 56.9677Z" fill="#75D0EE"/>
<path d="M181.783 345.233V285.088C181.218 293.386 178.855 301.462 174.858 308.756C169.896 317.209 159.985 321.406 145.127 321.348C137.668 321.336 130.225 320.67 122.882 319.358C115.71 318.146 108.668 316.263 101.849 313.733L92.3282 365.916C101.111 369.444 110.136 372.336 119.333 374.57C131.289 377.149 143.5 378.354 155.73 378.162C171.229 378.636 186.675 376.109 201.214 370.719C211.022 366.898 219.881 360.993 227.181 353.411L222.074 352.589C204.821 349.791 191.39 347.339 181.783 345.233Z" fill="#75D0EE"/>
<path d="M381.292 239.957C375.917 230.569 368.268 222.683 359.048 217.024C349.116 211.09 338.24 206.904 326.892 204.649C314.624 202.085 302.121 200.809 289.587 200.841C281.84 200.804 274.097 201.18 266.39 201.966C261.941 202.433 257.52 203.141 253.147 204.086C252.022 204.346 250.94 204.605 249.945 204.908V198.591C249.906 192.794 251.055 187.051 253.321 181.715C254.981 177.736 257.424 174.131 260.505 171.114C267.429 164.191 279.417 160.729 296.468 160.729C307.78 160.73 319.076 161.554 330.268 163.196C340.086 164.538 349.743 166.872 359.091 170.162L367.746 116.161C363.851 114.993 359.091 113.695 353.118 112.354C347.146 111.012 340.914 109.757 333.99 108.762C327.065 107.767 319.838 106.815 312.351 106.036C304.864 105.257 296.988 104.954 289.154 104.954C277.135 104.874 265.135 105.946 253.321 108.156C248.587 109.062 243.917 110.276 239.342 111.791C227.339 115.557 216.446 122.213 207.62 131.176C199.532 139.798 193.717 150.296 190.698 161.725C188.329 170.699 186.879 179.891 186.37 189.158C186.067 193.225 185.938 197.466 185.938 201.793V341.209C195.502 343.329 208.875 345.796 225.969 348.608L231.033 349.43C249.943 351.903 269.002 353.06 288.072 352.892C302.039 353.024 315.98 351.675 329.662 348.868C341.028 346.505 351.838 341.997 361.514 335.584C370.505 329.574 377.722 321.267 382.417 311.526C387.55 300.085 390.006 287.625 389.601 275.092C390.026 262.848 387.157 250.714 381.292 239.957V239.957ZM312.438 295.083C303.508 299.538 293.583 301.624 283.615 301.141C277.037 301.141 270.632 301.141 264.746 300.708C259.553 300.449 255.138 300.102 251.763 299.583H250.378V248.525L253.321 247.919C255.701 247.529 258.73 247.14 262.322 246.707C267.25 246.137 272.206 245.848 277.166 245.842C283.1 245.806 289.029 246.182 294.91 246.967C300.009 247.576 304.968 249.039 309.581 251.294C313.585 253.262 317.003 256.246 319.492 259.948C321.988 263.996 323.223 268.696 323.041 273.448C323.041 283.919 319.521 291.131 312.481 295.083H312.438Z" fill="#D6E869"/>
</svg>
