<svg id="Layer_1" data-name="Layer 1" xmlns="http://www.w3.org/2000/svg" viewBox="0 0 110.45 119.28"><defs><style>.cls-1{fill:#012b48;}.cls-2{fill:#75d0ee;}.cls-3{fill:#d6e869;}</style></defs><title>favicon</title><circle class="cls-1" cx="54.36" cy="57.41" r="51.75"/><path class="cls-2" d="M44.22,18.64V34.55H25.85V47.28H44.22v.29a31.59,31.59,0,0,1,1-6.25,16.36,16.36,0,0,1,3.85-7,17.51,17.51,0,0,1,7.24-4.42,24.8,24.8,0,0,1,3.18-.84v-8Z"/><path class="cls-2" d="M43.94,84.39V70.67a13.34,13.34,0,0,1-1.59,5.4C41.22,78,38.94,78.9,35.54,78.9a29.71,29.71,0,0,1-5.08-.46,27.19,27.19,0,0,1-4.78-1.28l-2.16,12a44.36,44.36,0,0,0,6.15,2,35.65,35.65,0,0,0,8.3.82,27.19,27.19,0,0,0,10.38-1.7,16.56,16.56,0,0,0,5.88-4L53.06,86Q47.23,85.11,43.94,84.39Z"/><path class="cls-3" d="M89.44,60.38a14.8,14.8,0,0,0-5.08-5.23,23.08,23.08,0,0,0-7.29-2.83,41.08,41.08,0,0,0-8.5-.87,44.35,44.35,0,0,0-5.28.26,25.81,25.81,0,0,0-3,.48,7,7,0,0,0-.73.19V50.94a9.77,9.77,0,0,1,.73-3.85,7.58,7.58,0,0,1,1.62-2.41c1.57-1.58,4.31-2.37,8.2-2.37a52.47,52.47,0,0,1,7.72.57,32.59,32.59,0,0,1,6.6,1.6l1.95-12.32c-.89-.28-2-.57-3.33-.88s-2.84-.6-4.36-.82-3.23-.44-5-.62a51.89,51.89,0,0,0-5.29-.24,42.4,42.4,0,0,0-8.11.72,23.22,23.22,0,0,0-3.18.83,17.48,17.48,0,0,0-7.24,4.41,16.36,16.36,0,0,0-3.86,7,32.22,32.22,0,0,0-1,6.25c-.06.94-.1,1.89-.1,2.83V83.43q3.28.72,9.14,1.69l1.16.19a93.27,93.27,0,0,0,12.93.83,45.32,45.32,0,0,0,9.44-.94,21,21,0,0,0,7.34-3,13.78,13.78,0,0,0,4.71-5.5,18.74,18.74,0,0,0,1.66-8.31A16,16,0,0,0,89.44,60.38ZM73.77,73a13.34,13.34,0,0,1-6.6,1.39c-1.51,0-3,0-4.32-.1-1.18-.06-2.19-.15-3-.26L59.51,74V62.34l.73-.15,2-.27a31.8,31.8,0,0,1,3.39-.2,29,29,0,0,1,4,.26,10.89,10.89,0,0,1,3.34.94,5.81,5.81,0,0,1,2.25,2A5.43,5.43,0,0,1,76.14,68c0,2.39-.8,4-2.4,5Z"/></svg>