<svg width="82" height="533" viewBox="0 0 82 533" fill="none" xmlns="http://www.w3.org/2000/svg">
<path d="M17.12 68.64C13.6 70.08 10.8 71.84 8.72 73.92C6.64 76 5.44 78.4 5.12 81.12L2.12 81.12C1.96 80.48 1.84 79.56 1.76 78.36C1.6 77.24 1.52 76.24 1.52 75.36C1.52 73.44 1.68 71.36 2 69.12C2.4 66.96 3.12 64.8 4.16 62.64C5.28 60.56 6.84 58.56 8.84 56.64C10.92 54.8 13.68 53.16 17.12 51.72L23.84 48.96L23.84 17.04L2 7.2L2 0.959995L81.2 36.36L81.2 41.76L17.12 68.64ZM29.24 19.56L29.24 46.68L60.56 33.48L29.24 19.56ZM14 100.495C12.48 101.215 11.16 102.095 10.04 103.135C9.08 104.015 8.2 105.135 7.4 106.495C6.6 107.855 6.2 109.455 6.2 111.295C6.2 113.375 6.8 115.135 7.99999 116.575C9.2 118.015 10.88 119.175 13.04 120.055C15.2 121.015 17.72 121.695 20.6 122.095C23.56 122.495 26.76 122.695 30.2 122.695C33.64 122.695 36.8 122.495 39.68 122.095C42.64 121.695 45.2 121.015 47.36 120.055C49.52 119.095 51.2 117.855 52.4 116.335C53.6 114.815 54.2 112.935 54.2 110.695C54.2 109.175 54 107.775 53.6 106.495C53.2 105.295 52.8 104.255 52.4 103.375C51.84 102.335 51.24 101.375 50.6 100.495L14 100.495ZM65.6 84.8953C69.2 84.8953 72.08 84.3753 74.24 83.3353C76.48 82.3753 77.6 80.0953 77.6 76.4953L77.6 75.2953L81.2 75.2953L81.2 89.6953C81.2 91.7753 80.92 93.4953 80.36 94.8553C79.88 96.2953 79.04 97.4153 77.84 98.2153C76.64 99.0953 75.04 99.6953 73.04 100.015C71.04 100.335 68.56 100.495 65.6 100.495L56 100.495C56.64 101.455 57.24 102.575 57.8 103.855C58.2 104.975 58.6 106.295 59 107.815C59.4 109.335 59.6 111.095 59.6 113.095C59.6 117.415 58.84 121.175 57.32 124.375C55.8 127.655 53.72 130.375 51.08 132.535C48.44 134.695 45.32 136.295 41.72 137.335C38.12 138.375 34.28 138.895 30.2 138.895C26.12 138.895 22.28 138.375 18.68 137.335C15.08 136.295 11.96 134.695 9.31999 132.535C6.67999 130.455 4.59999 127.815 3.07999 124.615C1.55999 121.495 0.799995 117.855 0.799995 113.695C0.799995 111.295 1.12 109.215 1.76 107.455C2.4 105.695 3.16 104.255 4.04 103.135C5 101.775 6.12 100.695 7.4 99.8953L7.4 99.2953L2 95.0953L2 84.8953L65.6 84.8953ZM30.2 189.04C33.64 189.04 36.8 188.76 39.68 188.2C42.64 187.72 45.2 186.96 47.36 185.92C49.52 184.88 51.2 183.56 52.4 181.96C53.6 180.36 54.2 178.52 54.2 176.44C54.2 174.36 53.6 172.52 52.4 170.92C51.2 169.32 49.52 168 47.36 166.96C45.2 165.92 42.64 165.12 39.68 164.56C36.8 164.08 33.64 163.84 30.2 163.84C26.76 163.84 23.56 164.08 20.6 164.56C17.72 165.12 15.2 165.92 13.04 166.96C10.88 168 9.19999 169.32 7.99999 170.92C6.79999 172.52 6.19999 174.36 6.19999 176.44C6.19999 178.52 6.79999 180.36 7.99999 181.96C9.19999 183.56 10.88 184.88 13.04 185.92C15.2 186.96 17.72 187.72 20.6 188.2C23.56 188.76 26.76 189.04 30.2 189.04ZM30.2 147.64C34.28 147.64 38.12 148.28 41.72 149.56C45.32 150.92 48.44 152.84 51.08 155.32C53.72 157.8 55.8 160.8 57.32 164.32C58.84 167.92 59.6 171.96 59.6 176.44C59.6 180.92 58.84 184.92 57.32 188.44C55.8 192.04 53.72 195.08 51.08 197.56C48.44 200.04 45.32 201.92 41.72 203.2C38.12 204.56 34.28 205.24 30.2 205.24C26.12 205.24 22.28 204.56 18.68 203.2C15.08 201.92 11.96 200.04 9.31999 197.56C6.67999 195.08 4.59999 192.04 3.07999 188.44C1.55999 184.92 0.799992 180.92 0.799992 176.44C0.799992 171.96 1.55999 167.92 3.07999 164.32C4.59999 160.8 6.67999 157.8 9.31999 155.32C11.96 152.84 15.08 150.92 18.68 149.56C22.28 148.28 26.12 147.64 30.2 147.64ZM42.8 217.931C46.4 217.931 49.28 217.411 51.44 216.371C53.68 215.411 54.8 213.131 54.8 209.531L54.8 208.331L58.4 208.331L58.4 222.731C58.4 224.811 58.12 226.531 57.56 227.891C57.08 229.331 56.24 230.451 55.04 231.251C53.84 232.131 52.24 232.731 50.24 233.051C48.24 233.371 45.76 233.531 42.8 233.531L22.76 233.531C16.6 233.531 12.28 234.411 9.79999 236.171C7.39999 237.931 6.19999 240.451 6.19999 243.731C6.19999 245.571 6.59999 247.131 7.39999 248.411C8.19999 249.771 9.07999 250.891 10.04 251.771C11.16 252.811 12.48 253.731 14 254.531L58.4 254.531L58.4 270.131L1.99999 270.131L1.99999 259.931L7.39999 255.731L7.39999 255.131C6.11999 253.931 4.99999 252.611 4.03999 251.171C3.15999 249.891 2.39999 248.331 1.75999 246.491C1.11999 244.651 0.799989 242.531 0.799989 240.131C0.79999 232.611 2.51999 227.011 5.95999 223.331C9.47999 219.731 15.12 217.931 22.88 217.931L42.8 217.931ZM58.4 302.703L58.4 315.903L53 315.903L53 302.703L17.6 302.703C13.12 302.703 10.08 303.223 8.47999 304.263C6.95999 305.383 6.19999 306.943 6.19999 308.943C6.19999 310.223 6.35999 311.423 6.67999 312.543C6.99999 313.743 7.35999 314.783 7.75999 315.663C8.23999 316.623 8.79999 317.543 9.43999 318.423L6.07999 320.103C5.11999 319.063 4.23999 317.823 3.43999 316.383C2.79999 315.103 2.19999 313.463 1.63999 311.463C1.07999 309.543 0.799986 307.223 0.799987 304.503C0.799987 299.063 2.27999 294.783 5.23999 291.663C8.19999 288.623 12.56 287.103 18.32 287.103L53 287.103L53 279.903L58.4 279.903L58.4 287.103L69.2 287.103L76.4 293.103L76.4 302.703L58.4 302.703ZM53.84 372.485C55.12 373.925 56.4 375.885 57.68 378.365C58.96 380.925 59.6 384.005 59.6 387.605C59.6 389.845 59.32 391.885 58.76 393.725C58.28 395.565 57.68 397.165 56.96 398.525C56.24 399.965 55.48 401.125 54.68 402.005C53.96 402.965 53.32 403.685 52.76 404.165C54.52 405.765 56.08 407.845 57.44 410.405C58.88 412.965 59.6 416.565 59.6 421.205C59.6 427.845 57.84 433.005 54.32 436.685C50.88 440.365 45.28 442.205 37.52 442.205L1.99998 442.205L1.99998 426.605L37.64 426.605C43.48 426.605 47.6 425.685 50 423.845C52.4 422.005 53.6 419.725 53.6 417.005C53.6 414.765 53.16 412.725 52.28 410.885C51.4 409.125 50.32 407.725 49.04 406.685C48.32 407.005 47.44 407.325 46.4 407.645C45.52 407.885 44.32 408.085 42.8 408.245C41.36 408.485 39.6 408.605 37.52 408.605L1.99998 408.605L1.99998 393.005L37.64 393.005C43.48 393.005 47.6 392.085 50 390.245C52.4 388.405 53.6 386.125 53.6 383.405C53.6 381.565 53.04 379.765 51.92 378.005C50.88 376.245 49.84 374.965 48.8 374.165C48.32 374.245 47.76 374.365 47.12 374.525C46.56 374.685 45.88 374.805 45.08 374.885C44.28 374.965 43.4 375.005 42.44 375.005L1.99998 375.005L1.99998 359.405L42.8 359.405C44.56 359.405 46.16 359.285 47.6 359.045C49.12 358.885 50.4 358.525 51.44 357.965C52.56 357.405 53.4 356.565 53.96 355.445C54.52 354.325 54.8 352.885 54.8 351.125L54.8 349.925L58.4 349.925L58.4 361.805C58.4 364.205 58.04 366.285 57.32 368.045C56.68 369.805 55.52 371.125 53.84 372.005L53.84 372.485ZM6.19998 482.785C6.19998 486.945 7.15998 490.305 9.07998 492.865C11 495.505 13.36 497.865 16.16 499.945L13.4 503.665C12.04 502.785 10.6 501.705 9.07998 500.425C7.63998 499.225 6.27998 497.705 4.99998 495.865C3.79998 494.105 2.79998 491.985 1.99998 489.505C1.19998 487.105 0.799979 484.265 0.799979 480.985C0.799979 476.745 1.51998 472.905 2.95998 469.465C4.47998 466.105 6.55998 463.225 9.19998 460.825C11.84 458.425 14.92 456.585 18.44 455.305C22.04 454.025 25.96 453.385 30.2 453.385C35 453.385 39.24 454.065 42.92 455.425C46.6 456.785 49.64 458.625 52.04 460.945C54.52 463.345 56.4 466.145 57.68 469.345C58.96 472.545 59.6 476.025 59.6 479.785C59.6 483.545 59 487.025 57.8 490.225C56.68 493.425 55.08 496.185 53 498.505C50.92 500.905 48.4 502.785 45.44 504.145C42.48 505.505 39.2 506.185 35.6 506.185C34.72 506.185 33.8 506.145 32.84 506.065C31.96 506.065 31.16 506.025 30.44 505.945C29.56 505.865 28.76 505.785 28.04 505.705L28.04 469.585C20.12 469.585 14.48 470.785 11.12 473.185C7.83998 475.665 6.19998 478.865 6.19998 482.785ZM33.44 489.985C37.44 489.985 40.76 489.705 43.4 489.145C46.04 488.665 48.16 487.985 49.76 487.105C51.36 486.225 52.48 485.145 53.12 483.865C53.84 482.665 54.2 481.305 54.2 479.785C54.2 478.425 53.84 477.105 53.12 475.825C52.48 474.625 51.36 473.545 49.76 472.585C48.16 471.705 46.04 470.985 43.4 470.425C40.76 469.865 37.44 469.585 33.44 469.585L33.44 489.985ZM20.6 530.28L20.6 519L81.2 516.72L81.2 532.68L20.6 530.28ZM7.63998 531.96C5.47998 531.96 3.71998 531.32 2.35998 530.04C0.999977 528.76 0.319977 526.96 0.319977 524.64C0.319977 522.32 0.999977 520.52 2.35998 519.24C3.71998 517.96 5.47998 517.32 7.63998 517.32C9.79998 517.32 11.56 517.96 12.92 519.24C14.28 520.52 14.96 522.32 14.96 524.64C14.96 526.96 14.28 528.76 12.92 530.04C11.56 531.32 9.79998 531.96 7.63998 531.96Z" fill="#A4CADA" fill-opacity="0.15"/>
</svg>
