<svg width="66" height="64" viewBox="0 0 66 64" fill="none" xmlns="http://www.w3.org/2000/svg">
<path d="M32.9054 63.5554C25.7568 63.5554 18.6313 63.5784 11.4827 63.5554C6.22498 63.5554 1.63604 59.962 0.413855 54.8484C0.183254 53.927 0.0679542 52.9595 0.0679542 52.0151C0.0448942 38.586 0.0448942 25.1339 0.0679542 11.7047C0.0679542 5.20901 5.1181 0.141421 11.621 0.141421C25.803 0.118387 40.0079 0.118387 54.1899 0.141421C60.6928 0.141421 65.7429 5.18598 65.7429 11.6817C65.766 25.1339 65.766 38.563 65.7429 52.0151C65.7429 58.4878 60.6928 63.5324 54.1899 63.5554C47.0874 63.5784 40.0079 63.5554 32.9054 63.5554Z" fill="#A4CADA"/>
<path d="M21.9749 35.5225C22.2055 35.914 22.3439 36.1674 22.4822 36.4208C24.304 39.7608 26.1257 43.1008 27.9475 46.4408C28.2242 46.9476 28.547 47.1779 29.1235 47.1549C30.6685 47.1318 32.2136 47.1549 33.7816 47.1318C34.0353 47.1088 34.312 47.0858 34.5657 47.0397C34.3812 46.6942 34.2659 46.4638 34.1275 46.2335C31.4526 41.6957 28.7546 37.1349 26.0565 32.5971C25.7798 32.2055 25.7798 31.6987 26.0565 31.3071C28.5701 27.0458 31.0606 22.7844 33.528 18.5C33.6663 18.2696 33.7586 18.0393 33.8969 17.7168C33.551 17.6938 33.3435 17.6707 33.1129 17.6707C31.7985 17.6707 30.461 17.6938 29.1466 17.6477C28.5009 17.6246 28.155 17.855 27.8552 18.4078C26.1718 21.7248 24.4654 25.0187 22.7589 28.3127C22.6436 28.543 22.5053 28.7733 22.3208 29.0958C22.1363 28.7503 22.021 28.543 21.9057 28.3357C20.1993 25.0648 18.4928 21.7939 16.8325 18.5C16.5097 17.855 16.1177 17.6246 15.4028 17.6477C13.9731 17.6938 12.5203 17.6707 11.0906 17.6707C10.86 17.6707 10.6063 17.6938 10.2604 17.7168C10.4679 18.0853 10.6063 18.3618 10.7677 18.6382C13.2582 23.0147 15.7487 27.3913 18.2392 31.7448C18.4928 32.1133 18.4928 32.6201 18.2161 32.9656C15.5642 37.3652 12.9354 41.7878 10.3065 46.2105C10.1682 46.4638 10.0298 46.7172 9.82227 47.0627C10.1912 47.0858 10.4449 47.1088 10.6755 47.1088C11.9438 47.1088 13.2352 47.0627 14.5035 47.1318C15.4028 47.1779 15.8871 46.8785 16.3021 46.0723C17.9855 42.7783 19.7611 39.5074 21.5137 36.2365C21.6751 36.0522 21.7904 35.8449 21.9749 35.5225Z" fill="white"/>
<path d="M49.8778 26.0551C49.555 26.0091 49.3013 26.0091 49.0707 25.963C44.4356 25.295 39.57 28.0131 37.7021 32.2975C36.7336 34.5088 36.6413 36.8353 36.895 39.1848C37.3331 43.1467 39.7314 46.1873 43.5132 47.1778C47.6179 48.2604 51.6073 47.5463 55.4583 45.98C55.8273 45.8187 55.8965 45.5654 55.7812 45.2198C55.3661 43.9069 55.2969 42.5478 55.2969 41.1658C55.32 33.2419 55.2969 25.318 55.32 17.3942C55.32 16.8183 55.2277 16.5189 54.5359 16.5649C53.2215 16.611 51.884 16.611 50.5696 16.5649C50.0162 16.5419 49.8778 16.7262 49.8778 17.256C49.9009 19.928 49.8778 22.5769 49.8778 25.2489V26.0551Z" fill="white"/>
<path d="M49.9009 36.8354C49.9009 38.8394 49.8779 40.8434 49.924 42.8474C49.9471 43.4463 49.7165 43.6767 49.14 43.7918C45.6118 44.4598 42.5448 42.3637 41.8069 38.7012C41.2996 36.1444 41.7377 33.7488 43.4211 31.6987C44.8508 29.9481 46.7187 29.3722 48.9324 29.7869C49.6012 29.9251 49.924 30.2015 49.9009 30.9846C49.8548 32.9195 49.9009 34.8775 49.9009 36.8354Z" fill="#A4CADA"/>
</svg>
