<svg width="197" height="133" viewBox="0 0 197 133" fill="none" xmlns="http://www.w3.org/2000/svg">
<path d="M8 0H189C188.527 0.510986 188.232 0.843721 187.901 1.18834L108.479 77.3609C102.181 83.3977 94.9726 83.6116 88.6624 77.5986C70.2122 59.9636 51.8172 42.2891 33.4773 24.5749C25.4654 16.8625 17.5008 9.12645 9.51257 1.34283C9.14624 0.986323 8.74447 0.653587 8 0Z" fill="white"/>
<path d="M8 133L69.3599 74C73.4427 77.7928 77.4429 81.5502 81.4903 85.2605C85.0415 88.6202 89.4931 90.8789 94.3051 91.7624C103.037 93.329 110.4 90.5845 116.725 84.5656C120.383 81.1144 123.97 77.5808 127.64 74.0353L189 133H8Z" fill="white"/>
<path d="M197 126L135 66.6038L197 8V126Z" fill="white"/>
<path d="M0 8L61 66.4882L0 125V8Z" fill="white"/>
</svg>
