<svg width="16" height="11" viewBox="0 0 16 11" fill="none" xmlns="http://www.w3.org/2000/svg">
<path d="M0.64978 0H15.3503C15.3119 0.0415014 15.2879 0.0685256 15.261 0.0965149L8.81054 6.28312C8.29899 6.77341 7.71355 6.79079 7.20104 6.30242C5.70255 4.87014 4.20854 3.43464 2.719 1.99593C2.06829 1.36955 1.42142 0.741234 0.772628 0.109062C0.742876 0.0801075 0.710245 0.0530832 0.64978 0Z" fill="white"/>
<path d="M0.64978 10.802L5.63333 6.01013C5.96492 6.31817 6.28981 6.62335 6.61854 6.92469C6.90695 7.19756 7.26851 7.38101 7.65933 7.45276C8.36853 7.58 8.96655 7.3571 9.48024 6.86825C9.77734 6.58795 10.0687 6.30095 10.3667 6.013L15.3503 10.802H0.64978Z" fill="white"/>
<path d="M16 10.2335L10.9645 5.40948L16 0.64978V10.2335Z" fill="white"/>
<path d="M0 0.64978L4.95431 5.40009L0 10.1523V0.64978Z" fill="white"/>
</svg>
