<svg width="26" height="17" viewBox="0 0 26 17" fill="none" xmlns="http://www.w3.org/2000/svg">
<path d="M1.02258 0H24.1579C24.0975 0.065314 24.0597 0.107844 24.0174 0.151893L13.8658 9.88824C13.0608 10.6599 12.1394 10.6872 11.3328 9.91862C8.97452 7.66452 6.62328 5.40537 4.27908 3.14115C3.25501 2.15536 2.23697 1.16654 1.21592 0.171639C1.1691 0.126071 1.11774 0.0835412 1.02258 0Z" fill="white"/>
<path d="M1.02258 17L8.86558 9.45862C9.38744 9.94341 9.89875 10.4237 10.4161 10.8979C10.87 11.3274 11.439 11.6161 12.0541 11.729C13.1702 11.9292 14.1113 11.5784 14.9198 10.8091C15.3873 10.368 15.8459 9.91631 16.3149 9.46313L24.1579 17H1.02258Z" fill="white"/>
<path d="M25.1805 16.1053L17.2557 8.51329L25.1805 1.02258V16.1053Z" fill="white"/>
<path d="M0 1.02258L7.79699 8.49852L0 15.9775V1.02258Z" fill="white"/>
</svg>
