<svg width="85" height="417" viewBox="0 0 85 417" fill="none" xmlns="http://www.w3.org/2000/svg">
<path d="M56.64 68C63.92 66.48 69.48 63.68 73.32 59.6C77.24 55.6 79.2 50.28 79.2 43.64C79.2 39.96 78.6 36.52 77.4 33.32C76.2 30.12 74.12 27.32 71.16 24.92C68.28 22.52 64.4 20.64 59.52 19.28C54.72 17.92 48.68 17.24 41.4 17.24C36.84 17.24 32.4 17.72 28.08 18.68C23.84 19.64 20.08 21.16 16.8 23.24C13.52 25.4 10.88 28.12 8.88 31.4C6.96 34.76 6 38.84 6 43.64C6 49.16 7.44 54.28 10.32 59C13.28 63.72 17.56 67.52 23.16 70.4L19.92 74.6C13.28 70.84 8.4 66.24 5.28 60.8C2.16 55.36 0.599998 48.44 0.599998 40.04C0.599998 33.72 1.64 28.08 3.72 23.12C5.8 18.24 8.68 14.12 12.36 10.76C16.04 7.4 20.36 4.84 25.32 3.08C30.28 1.32 35.64 0.439997 41.4 0.439997C47.48 0.439997 53.12 1.44 58.32 3.44C63.6 5.44 68.16 8.2 72 11.72C75.92 15.24 79 19.4 81.24 24.2C83.48 29.08 84.6 34.36 84.6 40.04C84.6 47.56 83.6 53.6 81.6 58.16C79.68 62.8 77.44 66.24 74.88 68.48C72.8 70.08 70.12 71 66.84 71.24C63.56 71.48 60.16 71.6 56.64 71.6L56.64 68ZM31.2 123.165C34.64 123.165 37.8 122.885 40.68 122.325C43.64 121.845 46.2 121.085 48.36 120.045C50.52 119.005 52.2 117.685 53.4 116.085C54.6 114.485 55.2 112.645 55.2 110.565C55.2 108.485 54.6 106.645 53.4 105.045C52.2 103.445 50.52 102.125 48.36 101.085C46.2 100.045 43.64 99.2453 40.68 98.6853C37.8 98.2053 34.64 97.9653 31.2 97.9653C27.76 97.9653 24.56 98.2053 21.6 98.6853C18.72 99.2453 16.2 100.045 14.04 101.085C11.88 102.125 10.2 103.445 9 105.045C7.8 106.645 7.2 108.485 7.2 110.565C7.19999 112.645 7.79999 114.485 8.99999 116.085C10.2 117.685 11.88 119.005 14.04 120.045C16.2 121.085 18.72 121.845 21.6 122.325C24.56 122.885 27.76 123.165 31.2 123.165ZM31.2 81.7653C35.28 81.7653 39.12 82.4053 42.72 83.6853C46.32 85.0453 49.44 86.9653 52.08 89.4453C54.72 91.9253 56.8 94.9253 58.32 98.4453C59.84 102.045 60.6 106.085 60.6 110.565C60.6 115.045 59.84 119.045 58.32 122.565C56.8 126.165 54.72 129.205 52.08 131.685C49.44 134.165 46.32 136.045 42.72 137.325C39.12 138.685 35.28 139.365 31.2 139.365C27.12 139.365 23.28 138.685 19.68 137.325C16.08 136.045 12.96 134.165 10.32 131.685C7.67999 129.205 5.59999 126.165 4.07999 122.565C2.55999 119.045 1.79999 115.045 1.79999 110.565C1.8 106.085 2.56 102.045 4.08 98.4453C5.6 94.9253 7.68 91.9253 10.32 89.4453C12.96 86.9653 16.08 85.0453 19.68 83.6853C23.28 82.4053 27.12 81.7653 31.2 81.7653ZM54.6 179.056C54.6 176.496 54.24 174.256 53.52 172.336C52.8 170.496 51.92 169.056 50.88 168.016C50.4 168.096 49.84 168.216 49.2 168.376C48.64 168.536 47.96 168.656 47.16 168.736C46.36 168.816 45.48 168.856 44.52 168.856L2.99999 168.856L2.99999 153.256L43.8 153.256C45.56 153.256 47.16 153.136 48.6 152.896C50.12 152.736 51.4 152.376 52.44 151.816C53.56 151.256 54.4 150.416 54.96 149.296C55.52 148.176 55.8 146.736 55.8 144.976L55.8 143.776L59.4 143.776L59.4 155.656C59.4 158.376 59.04 160.496 58.32 162.016C57.68 163.616 56.56 164.856 54.96 165.736C55.6 166.456 56.24 167.296 56.88 168.256C57.6 169.296 58.2 170.496 58.68 171.856C59.24 173.296 59.68 174.936 60 176.776C60.4 178.616 60.6 180.776 60.6 183.256C60.6 190.776 58.84 196.456 55.32 200.296C51.88 204.136 46.28 206.056 38.52 206.056L2.99999 206.056L2.99999 190.456L38.64 190.456C44.48 190.456 48.6 189.376 51 187.216C53.4 185.056 54.6 182.336 54.6 179.056ZM59.4 238L59.4 251.2L54 251.2L54 238L18.6 238C14.12 238 11.08 238.52 9.47999 239.56C7.95999 240.68 7.19999 242.24 7.19999 244.24C7.19999 245.52 7.35999 246.72 7.67999 247.84C7.99999 249.04 8.35999 250.08 8.75999 250.96C9.23999 251.92 9.79999 252.84 10.44 253.72L7.07999 255.4C6.11999 254.36 5.23999 253.12 4.43999 251.68C3.79999 250.4 3.19999 248.76 2.63999 246.76C2.07999 244.84 1.79999 242.52 1.79999 239.8C1.79999 234.36 3.27999 230.08 6.23999 226.96C9.19999 223.92 13.56 222.4 19.32 222.4L54 222.4L54 215.2L59.4 215.2L59.4 222.4L70.2 222.4L77.4 228.4L77.4 238L59.4 238ZM30.6 292.782L30.6 290.982C30.6 285.222 29.56 281.062 27.48 278.502C25.4 276.022 22.24 274.782 18 274.782C14.64 274.782 12.08 275.462 10.32 276.822C8.63999 278.262 7.79999 280.182 7.79999 282.582C7.79999 284.422 8.19999 285.942 8.99999 287.142C9.79999 288.422 10.68 289.502 11.64 290.382C12.76 291.342 14.08 292.142 15.6 292.782L30.6 292.782ZM60.6 283.782C60.6 291.622 58.52 297.662 54.36 301.902C50.2 306.222 43.88 308.382 35.4 308.382L2.99999 308.382L2.99999 298.182L8.39999 293.982L8.39999 293.382C7.11999 292.502 5.99999 291.382 5.03999 290.022C4.15999 288.902 3.39999 287.422 2.75999 285.582C2.11999 283.742 1.79999 281.542 1.79999 278.982C1.79999 272.342 3.27999 267.262 6.23999 263.742C9.27999 260.302 13.2 258.582 18 258.582C20.88 258.582 23.4 259.062 25.56 260.022C27.8 260.982 29.68 262.662 31.2 265.062C32.8 267.542 34 270.862 34.8 275.022C35.6 279.182 36 284.502 36 290.982L36 292.782C43.2 292.782 48.2 291.782 51 289.782C53.8 287.782 55.2 284.982 55.2 281.382C55.2 280.022 55.04 278.702 54.72 277.422C54.48 276.222 53.96 275.102 53.16 274.062C52.36 273.022 51.24 272.102 49.8 271.302C48.44 270.502 46.64 269.862 44.4 269.382L44.4 262.782C46.48 262.782 48.6 262.902 50.76 263.142C52.92 263.462 54.8 264.342 56.4 265.782C58 267.222 59.08 269.582 59.64 272.862C60.28 276.222 60.6 279.862 60.6 283.782ZM55.2 349.553C55.2 345.313 53.24 341.833 49.32 339.113C45.4 336.473 39.36 335.153 31.2 335.153C15.2 335.153 7.19998 340.153 7.19998 350.153C7.19998 354.313 8.15998 357.673 10.08 360.233C12 362.873 14.36 365.233 17.16 367.313L14.4 371.033C13.04 370.153 11.6 369.073 10.08 367.793C8.63998 366.593 7.27998 365.073 5.99998 363.233C4.79998 361.393 3.79998 359.193 2.99998 356.633C2.19998 354.153 1.79998 351.193 1.79998 347.753C1.79998 342.953 2.55998 338.753 4.07999 335.153C5.67999 331.553 7.79999 328.553 10.44 326.153C13.16 323.753 16.28 321.953 19.8 320.753C23.4 319.553 27.2 318.953 31.2 318.953C35.2 318.953 38.96 319.553 42.48 320.753C46.08 321.953 49.2 323.753 51.84 326.153C54.56 328.553 56.68 331.553 58.2 335.153C59.8 338.753 60.6 342.953 60.6 347.753C60.6 352.313 60.28 356.153 59.64 359.273C59 362.473 57.92 364.833 56.4 366.353C54.88 367.873 52.84 368.753 50.28 368.993C47.72 369.233 44.16 369.353 39.6 369.353L39.6 365.753C44.72 365.433 48.6 363.833 51.24 360.953C53.88 358.153 55.2 354.353 55.2 349.553ZM59.4 399.484L59.4 412.684L54 412.684L54 399.484L18.6 399.484C14.12 399.484 11.08 400.004 9.47998 401.044C7.95998 402.164 7.19998 403.724 7.19998 405.724C7.19998 407.004 7.35998 408.204 7.67998 409.324C7.99998 410.524 8.35998 411.564 8.75998 412.444C9.23998 413.404 9.79998 414.324 10.44 415.204L7.07998 416.884C6.11998 415.844 5.23998 414.604 4.43998 413.164C3.79998 411.884 3.19998 410.244 2.63998 408.244C2.07998 406.324 1.79998 404.004 1.79998 401.284C1.79998 395.844 3.27998 391.564 6.23998 388.444C9.19998 385.404 13.56 383.884 19.32 383.884L54 383.884L54 376.684L59.4 376.684L59.4 383.884L70.2 383.884L77.4 389.884L77.4 399.484L59.4 399.484Z" fill="#A4CADA" fill-opacity="0.1"/>
</svg>
