<svg width="61" height="70" viewBox="0 0 61 70" fill="none" xmlns="http://www.w3.org/2000/svg">
<path d="M0 0.905151H60.7629C60.691 1.60331 60.6192 2.30146 60.5653 2.98171C60.0804 8.37003 59.6134 13.7404 59.1284 19.1288C58.6973 23.98 58.2663 28.8134 57.8352 33.6647C57.3682 38.9635 56.9012 44.2444 56.4163 49.5432C56.0391 53.8037 55.6619 58.0643 55.3027 62.3248C55.2488 62.9514 55.0153 63.2557 54.3866 63.4347C46.5735 65.5829 38.7604 67.7668 30.9472 69.9329C30.588 70.0224 30.1929 70.0224 29.8336 69.9329C22.0025 67.7668 14.1714 65.5829 6.32236 63.4168C5.7476 63.2557 5.5141 62.9872 5.46022 62.4143C5.33449 60.8032 5.17284 59.1921 5.02915 57.563C4.47235 51.1902 3.91555 44.8173 3.34079 38.4444C2.76603 32.0715 2.20923 25.6986 1.63447 19.3257L0 0.905151Z" fill="#A4CADA"/>
<path d="M30.3725 13.6151H15.1234C14.0098 13.6151 12.9142 13.633 11.8006 13.6151C11.3516 13.6151 11.136 13.7583 11.1719 14.2417C11.3156 16.175 11.4593 18.1084 11.5671 20.0417C11.603 20.6504 11.8186 20.901 12.4831 20.901C15.0875 20.8652 17.6739 20.8652 20.2783 20.8473C27.0497 20.8294 33.839 20.7936 40.6284 20.7757C41.1852 20.7757 41.3289 20.9905 41.275 21.4917C41.1133 23.6041 40.9517 25.7165 40.826 27.8288C40.79 28.2943 40.5925 28.5091 40.1075 28.5091C39.2094 28.5091 38.2934 28.5628 37.3954 28.5628L13.3273 28.8492C12.4292 28.8671 12.4113 28.8671 12.5011 29.7622C12.6807 31.5165 12.8603 33.2529 13.0399 35.0073C13.1477 36.1351 13.1477 36.1351 14.3152 36.1351L39.1376 36.0635C40.0895 36.0635 40.1075 36.0635 40.0177 36.9764C39.6944 39.9481 39.3531 42.9376 39.0478 45.9092C38.9939 46.4284 38.7963 46.6969 38.2575 46.8401C35.8507 47.4666 33.4618 48.129 31.055 48.7376C30.624 48.845 30.1749 48.845 29.7259 48.7376C27.3371 48.129 24.9662 47.4666 22.5773 46.858C22.0205 46.7148 21.805 46.4463 21.7511 45.8913C21.6254 44.2802 21.4278 42.6691 21.338 41.04C21.3021 40.4135 21.0327 40.2524 20.4399 40.2524C18.4103 40.2703 16.3627 40.2703 14.3331 40.2524C13.6865 40.2524 13.5069 40.4672 13.5788 41.0937C13.92 44.6203 14.2254 48.129 14.5127 51.6556C14.5666 52.3179 14.8001 52.6401 15.4647 52.8192C20.1705 54.0902 24.8764 55.4149 29.5822 56.6858C30.1031 56.8112 30.6419 56.8112 31.1628 56.6858C35.8327 55.4328 40.4847 54.1081 45.1546 52.8729C45.9449 52.658 46.1784 52.2821 46.2503 51.5303C46.6095 47.2339 46.9867 42.9555 47.3818 38.6771C48.1003 30.6393 48.8187 22.6195 49.5372 14.5818C49.627 13.633 49.609 13.6151 48.6211 13.6151H30.3725Z" fill="white"/>
</svg>
