<svg width="85" height="707" viewBox="0 0 85 707" fill="none" xmlns="http://www.w3.org/2000/svg">
<path d="M82.2 53.72C82.2 55.8 81.92 57.48 81.36 58.76C80.8 60.12 80.08 61.16 79.2 61.88C78.32 62.68 77.28 63.2 76.08 63.44C74.96 63.76 73.8 63.92 72.6 63.92L62.4 63.92L62.4 60.32C67.52 60.32 71.2 59 73.44 56.36C75.68 53.8 76.8 50.12 76.8 45.32L76.8 26L46.8 26L46.8 57.2L41.4 57.2L41.4 26L8.4 26L8.4 46.52C8.4 50.92 9.36 54.64 11.28 57.68C13.28 60.8 16.88 63.4 22.08 65.48L20.88 68.72L11.4 65.24C8.84 64.36 6.8 63.2 5.28 61.76C3.76 60.4 3 58.08 3 54.8L3 10.4L66.6 10.4C70.2 10.4 73.08 9.88 75.24 8.84C77.48 7.88 78.6 5.6 78.6 2L78.6 0.799999L82.2 0.799999L82.2 53.72ZM52.92 112.593L82.2 135.753L82.2 143.553L47.52 116.073L18.6 134.913C17.08 135.873 15.56 136.993 14.04 138.273C12.52 139.633 11.12 140.993 9.83999 142.353C8.63999 143.793 7.63999 145.233 6.83999 146.673C6.03999 148.193 5.55999 149.633 5.39999 150.993L2.99999 150.993L2.99999 137.793C2.99999 135.553 3.39999 133.433 4.19999 131.433C4.99999 129.513 6.03999 127.713 7.31999 126.033C8.59999 124.433 9.99999 122.953 11.52 121.593C13.12 120.313 14.68 119.193 16.2 118.233L34.92 106.113L3 80.7931L3 72.9931L40.32 102.513L66.6 85.4731C68.12 84.5131 69.64 83.3531 71.16 81.9931C72.68 80.7131 74.04 79.3531 75.24 77.9131C76.52 76.5531 77.56 75.1131 78.36 73.5931C79.16 72.1531 79.64 70.7531 79.8 69.3931L82.2 69.3931L82.2 82.5931C82.2 84.8331 81.8 86.9131 81 88.8331C80.2 90.8331 79.16 92.6331 77.88 94.2331C76.6 95.9131 75.16 97.3931 73.56 98.6731C72.04 100.033 70.52 101.193 69 102.153L52.92 112.593ZM77.4 183.448C77.4 182.488 77.36 181.528 77.28 180.568C77.2 179.608 77.08 178.768 76.92 178.048C76.76 177.168 76.64 176.368 76.56 175.648L39.84 175.648L39.84 182.848C39.84 184.848 40.12 186.808 40.68 188.728C41.24 190.728 42.24 192.488 43.68 194.008C45.12 195.528 47.04 196.728 49.44 197.608C51.92 198.568 55 199.048 58.68 199.048C62.36 199.048 65.4 198.568 67.8 197.608C70.2 196.728 72.12 195.528 73.56 194.008C75 192.568 76 190.928 76.56 189.088C77.12 187.248 77.4 185.368 77.4 183.448ZM82.2 183.448C82.2 185.208 82.12 187.248 81.96 189.568C81.8 191.888 81.4 194.248 80.76 196.648C80.2 199.048 79.4 201.368 78.36 203.608C77.32 205.928 75.88 208.008 74.04 209.848C72.28 211.688 70.08 213.128 67.44 214.168C64.88 215.288 61.76 215.848 58.08 215.848C54.64 215.848 51.68 215.288 49.2 214.168C46.72 213.128 44.6 211.728 42.84 209.968C41.16 208.208 39.8 206.248 38.76 204.088C37.72 201.928 36.92 199.768 36.36 197.608C35.8 195.528 35.44 193.528 35.28 191.608C35.12 189.768 35.04 188.248 35.04 187.048L35.04 175.648L2.99999 175.648L2.99999 160.048L66.6 160.048C70.2 160.048 73.08 159.528 75.24 158.488C77.48 157.528 78.6 155.248 78.6 151.648L78.6 150.448L82.2 150.448L82.2 183.448ZM82.2 272.626C82.2 274.706 81.92 276.386 81.36 277.666C80.8 279.026 80.08 280.066 79.2 280.786C78.32 281.586 77.28 282.106 76.08 282.346C74.96 282.666 73.8 282.826 72.6 282.826L62.4 282.826L62.4 279.226C67.52 279.226 71.2 277.906 73.44 275.266C75.68 272.706 76.8 269.026 76.8 264.226L76.8 244.906L46.8 244.906L46.8 276.106L41.4 276.106L41.4 244.906L8.39999 244.906L8.39999 265.426C8.39999 269.826 9.35999 273.546 11.28 276.586C13.28 279.706 16.88 282.306 22.08 284.386L20.88 287.626L11.4 284.146C8.83999 283.266 6.79999 282.106 5.27999 280.666C3.75999 279.306 2.99999 276.986 2.99999 273.706L2.99999 229.306L66.6 229.306C70.2 229.306 73.08 228.786 75.24 227.746C77.48 226.786 78.6 224.506 78.6 220.906L78.6 219.706L82.2 219.706L82.2 272.626ZM77.4 324.779C77.4 323.819 77.36 322.859 77.28 321.899C77.2 320.939 77.08 320.099 76.92 319.379C76.76 318.499 76.64 317.699 76.56 316.979L44.04 316.979L44.04 324.179C44.04 326.099 44.32 328.019 44.88 329.939C45.44 331.859 46.36 333.579 47.64 335.099C48.92 336.699 50.64 337.979 52.8 338.939C54.96 339.899 57.6 340.379 60.72 340.379C63.84 340.379 66.44 339.899 68.52 338.939C70.68 337.979 72.4 336.739 73.68 335.219C75.04 333.699 76 332.019 76.56 330.179C77.12 328.339 77.4 326.539 77.4 324.779ZM39.24 321.779L39.24 316.979L2.99999 316.979L2.99999 301.259L66.6 301.259C70.2 301.259 73.08 300.739 75.24 299.699C77.48 298.739 78.6 296.459 78.6 292.859L78.6 291.659L82.2 291.659L82.2 324.779C82.2 326.699 82.12 328.819 81.96 331.139C81.8 333.459 81.44 335.819 80.88 338.219C80.32 340.619 79.52 342.939 78.48 345.179C77.52 347.499 76.2 349.539 74.52 351.299C72.92 353.059 70.92 354.459 68.52 355.499C66.2 356.619 63.4 357.179 60.12 357.179C57 357.179 54.28 356.579 51.96 355.379C49.72 354.259 47.8 352.739 46.2 350.819C44.68 348.979 43.44 346.899 42.48 344.579C41.52 342.259 40.76 339.979 40.2 337.739L19.2 350.339C16.64 351.859 14.52 353.299 12.84 354.659C11.24 356.099 9.95998 357.459 8.99998 358.739C8.03998 360.019 7.31998 361.179 6.83998 362.219C6.43998 363.339 6.15998 364.339 5.99998 365.219L2.99998 365.219C2.67998 364.579 2.39998 363.419 2.15998 361.739C1.91998 360.139 1.79998 358.579 1.79998 357.059C1.79998 354.979 2.07998 352.939 2.63998 350.939C3.19998 349.019 4.15998 347.099 5.51999 345.179C6.87999 343.339 8.67999 341.459 10.92 339.539C13.16 337.699 15.92 335.779 19.2 333.779L39.24 321.779ZM82.2 373.285L82.2 388.885L18.6 388.885C15 388.885 12.08 389.365 9.83998 390.325C7.67998 391.365 6.59998 393.685 6.59998 397.285L6.59998 398.485L2.99998 398.485L2.99998 384.085C2.99998 382.005 3.23998 380.245 3.71998 378.805C4.19998 377.445 5.03998 376.325 6.23998 375.445C7.43998 374.645 9.03998 374.085 11.04 373.765C13.04 373.445 15.56 373.285 18.6 373.285L82.2 373.285ZM82.2 454.97C82.2 457.05 81.92 458.73 81.36 460.01C80.8 461.37 80.08 462.41 79.2 463.13C78.32 463.93 77.28 464.45 76.08 464.69C74.96 465.01 73.8 465.17 72.6 465.17L62.4 465.17L62.4 461.57C67.52 461.57 71.2 460.25 73.44 457.61C75.68 455.05 76.8 451.37 76.8 446.57L76.8 427.25L46.8 427.25L46.8 458.45L41.4 458.45L41.4 427.25L8.39998 427.25L8.39998 447.77C8.39998 452.17 9.35998 455.89 11.28 458.93C13.28 462.05 16.88 464.65 22.08 466.73L20.88 469.97L11.4 466.49C8.83998 465.61 6.79998 464.45 5.27998 463.01C3.75998 461.65 2.99998 459.33 2.99998 456.05L2.99998 411.65L66.6 411.65C70.2 411.65 73.08 411.13 75.24 410.09C77.48 409.13 78.6 406.85 78.6 403.25L78.6 402.05L82.2 402.05L82.2 454.97ZM27 540.363L82.2 540.363L82.2 546.363L2.63998 546.363L2.63998 540.843L62.4 489.963L2.99998 489.963L2.99998 483.963L67.8 483.963C69.32 483.963 70.72 483.803 72 483.483C73.36 483.163 74.52 482.563 75.48 481.683C76.44 480.883 77.2 479.763 77.76 478.323C78.32 476.963 78.6 475.243 78.6 473.163L78.6 472.563L82.2 472.563L82.2 480.963C82.2 485.523 81.6 489.203 80.4 492.003C79.2 494.883 77.4 497.243 75 499.083L27 540.363ZM56.64 627.289C63.92 625.769 69.48 622.969 73.32 618.889C77.24 614.889 79.2 609.569 79.2 602.929C79.2 599.249 78.6 595.809 77.4 592.609C76.2 589.409 74.12 586.609 71.16 584.209C68.28 581.809 64.4 579.929 59.52 578.569C54.72 577.209 48.68 576.529 41.4 576.529C36.84 576.529 32.4 577.009 28.08 577.969C23.84 578.929 20.08 580.449 16.8 582.529C13.52 584.689 10.88 587.409 8.87997 590.689C6.95997 594.049 5.99997 598.129 5.99997 602.929C5.99997 608.449 7.43997 613.569 10.32 618.289C13.28 623.009 17.56 626.809 23.16 629.689L19.92 633.889C13.28 630.129 8.39997 625.529 5.27997 620.089C2.15997 614.649 0.599973 607.729 0.599974 599.329C0.599974 593.009 1.63997 587.369 3.71997 582.409C5.79997 577.529 8.67998 573.409 12.36 570.049C16.04 566.689 20.36 564.129 25.32 562.369C30.28 560.609 35.64 559.729 41.4 559.729C47.48 559.729 53.12 560.729 58.32 562.729C63.6 564.729 68.16 567.489 72 571.009C75.92 574.529 79 578.689 81.24 583.489C83.48 588.369 84.6 593.649 84.6 599.329C84.6 606.849 83.6 612.889 81.6 617.449C79.68 622.089 77.44 625.529 74.88 627.769C72.8 629.369 70.12 630.289 66.84 630.529C63.56 630.769 60.16 630.889 56.64 630.889L56.64 627.289ZM82.2 691.454C82.2 693.534 81.92 695.214 81.36 696.494C80.8 697.854 80.08 698.894 79.2 699.614C78.32 700.414 77.28 700.934 76.08 701.174C74.96 701.494 73.8 701.654 72.6 701.654L62.4 701.654L62.4 698.054C67.52 698.054 71.2 696.734 73.44 694.094C75.68 691.534 76.8 687.854 76.8 683.054L76.8 663.734L46.8 663.734L46.8 694.934L41.4 694.934L41.4 663.734L8.39997 663.734L8.39997 684.254C8.39997 688.654 9.35997 692.374 11.28 695.414C13.28 698.534 16.88 701.134 22.08 703.214L20.88 706.454L11.4 702.974C8.83997 702.094 6.79997 700.934 5.27997 699.494C3.75997 698.134 2.99997 695.814 2.99997 692.534L2.99997 648.134L66.6 648.134C70.2 648.134 73.08 647.614 75.24 646.574C77.48 645.614 78.6 643.334 78.6 639.734L78.6 638.534L82.2 638.534L82.2 691.454Z" fill="#A4CADA" fill-opacity="0.1"/>
</svg>
