<svg width="12" height="8" viewBox="0 0 12 8" fill="none" xmlns="http://www.w3.org/2000/svg">
<path d="M0.956055 3.79347C1.06697 3.62976 1.16642 3.46032 1.29043 3.30929C1.96083 2.49401 2.74419 1.81379 3.69126 1.33412C4.33086 1.0053 5.02684 0.800341 5.74256 0.730023C7.14761 0.596599 8.41801 0.96986 9.582 1.74585C10.3375 2.25008 10.9674 2.88528 11.5167 3.60438C11.6521 3.7816 11.6525 3.97273 11.5167 4.15036C10.8831 4.97956 10.1431 5.69293 9.2382 6.22417C8.49004 6.66333 7.68868 6.94205 6.82142 7.02431C5.55879 7.14341 4.39276 6.84996 3.30818 6.20821C2.41145 5.67615 1.67884 4.96646 1.05142 4.14136C1.01456 4.08358 0.982661 4.02279 0.956055 3.95964V3.79347ZM6.21691 1.63821C4.99931 1.66072 4.02932 2.69006 4.04774 3.94081C4.06452 5.15964 5.10327 6.13781 6.35648 6.1153C7.56999 6.0932 8.54653 5.05732 8.52811 3.81148C8.50887 2.59224 7.47053 1.61529 6.21691 1.63821Z" fill="#75D0EE"/>
<path d="M7.49361 3.87784C7.49288 4.03639 7.46094 4.19325 7.39959 4.33946C7.33824 4.48566 7.2487 4.61836 7.13607 4.72996C7.02344 4.84156 6.88994 4.92988 6.74318 4.98989C6.59641 5.0499 6.43927 5.08041 6.28072 5.07968C6.12216 5.07896 5.9653 5.04701 5.8191 4.98566C5.67289 4.92431 5.5402 4.83477 5.42859 4.72214C5.31699 4.60952 5.22867 4.47601 5.16866 4.32925C5.10866 4.18248 5.07814 4.02534 5.07887 3.86678C5.08255 3.20212 5.63958 2.66187 6.31407 2.66883C6.96441 2.6762 7.49811 3.22299 7.49361 3.87784Z" fill="#75D0EE"/>
</svg>
