<svg width="39" height="38" viewBox="0 0 39 38" fill="none" xmlns="http://www.w3.org/2000/svg">
<g clip-path="url(#clip0_266_2)">
<path d="M0.686661 34.1V4.11249C0.715314 4.07491 0.736851 4.03257 0.750241 3.98749C1.14444 1.98749 2.73394 0.662485 4.79393 0.649985H34.1298C34.5703 0.647198 35.0083 0.714743 35.4268 0.849985C37.1816 1.38749 38.2497 2.91249 38.2497 4.83749V33.7125C38.2202 34.5413 37.9288 35.3405 37.4161 35.999C36.9034 36.6576 36.1948 37.1429 35.3886 37.3875L34.7274 37.575H4.209C4.14541 37.55 4.08184 37.525 4.00554 37.5C2.82295 37.2625 1.88197 36.6625 1.28431 35.625C1.00456 35.1625 0.877401 34.6125 0.686661 34.1Z" fill="#A4CADA"/>
<path d="M12.4235 23.2125C12.2964 23.3125 12.1947 23.3875 12.0802 23.475C10.4907 24.8 9.86762 26.475 10.3381 28.475C10.8976 30.85 13.2628 32.4875 15.6407 32.2125C18.3238 31.9 20.2439 29.8875 20.2693 27.3375C20.282 25.95 20.2693 24.575 20.2693 23.1875V22.775C22.6599 24.7375 25.8516 24.2375 27.492 22.35C28.3056 21.4493 28.7418 20.2791 28.7127 19.075C28.6873 17.3625 27.8989 16.0375 26.4874 15.025C26.6019 14.9375 26.6655 14.8875 26.7418 14.825C27.5639 14.2099 28.1714 13.3589 28.4802 12.3897C28.789 11.4205 28.7839 10.3809 28.4655 9.41468C28.1472 8.44846 27.5314 7.6033 26.7032 6.99606C25.875 6.38882 24.8754 6.04949 23.8425 6.02498C20.9051 5.99998 17.9804 5.99998 15.043 6.02498C14.0126 6.05094 13.0157 6.3901 12.1894 6.99581C11.3632 7.60152 10.7481 8.44402 10.4288 9.40742C10.1096 10.3708 10.1018 11.4078 10.4067 12.3757C10.7115 13.3436 11.3139 14.1949 12.1311 14.8125C12.2201 14.8875 12.3091 14.95 12.4108 15.025C9.46071 17.05 9.46071 21.175 12.4235 23.2125V23.2125Z" fill="white"/>
<path d="M18.629 14.15C17.2556 14.15 15.9204 14.2625 14.6107 14.125C12.9067 13.9375 11.7623 12.425 11.8386 10.7C11.8866 9.90861 12.2272 9.16176 12.7963 8.60003C13.3654 8.0383 14.1237 7.70042 14.9286 7.64999C16.1112 7.58749 17.2938 7.62499 18.4891 7.62499C18.5422 7.62553 18.5945 7.63837 18.6417 7.66249V14.15H18.629Z" fill="#A4CADA"/>
<path d="M20.2948 14.2V7.6H20.9941C21.9987 7.6 23.0033 7.575 23.9951 7.625C24.8392 7.6772 25.6305 8.0462 26.2056 8.65574C26.7807 9.26527 27.0956 10.0687 27.0851 10.9C27.0851 12.625 25.7245 14.0875 23.9824 14.175C22.7744 14.25 21.5409 14.2 20.2948 14.2Z" fill="#A4CADA"/>
<path d="M18.629 15.8125V22.35C18.6035 22.3625 18.5781 22.4 18.5654 22.4C17.3192 22.4 16.073 22.475 14.8269 22.375C13.0212 22.225 11.8005 20.775 11.8259 19.0125C11.8439 18.193 12.1763 17.4105 12.7564 16.8218C13.3365 16.233 14.1214 15.8814 14.954 15.8375C16.162 15.7625 17.3701 15.8125 18.629 15.8125Z" fill="#A4CADA"/>
<path d="M18.5908 24.0125C18.5908 25.3 18.6925 26.5625 18.5654 27.7875C18.3873 29.5625 16.6707 30.75 14.7887 30.575C13.0721 30.4125 11.7623 28.8875 11.8386 27.125C11.9022 25.425 13.3645 24.0375 15.1575 24.0125C16.3019 24 17.4464 24.0125 18.5908 24.0125Z" fill="#A4CADA"/>
<path d="M27.0978 19.1C27.1103 19.7624 26.9226 20.4136 26.5587 20.9712C26.1947 21.5287 25.6707 21.9677 25.0529 22.2326C24.4351 22.4974 23.7513 22.5763 23.088 22.4591C22.4246 22.342 21.8115 22.0341 21.3261 21.5745C20.8408 21.1148 20.5049 20.524 20.3611 19.8768C20.2173 19.2295 20.2719 18.5549 20.5181 17.9381C20.7643 17.3214 21.191 16.7903 21.7443 16.4119C22.2976 16.0336 22.9525 15.825 23.6264 15.8125H23.6899C24.1326 15.8072 24.5719 15.8878 24.9828 16.0496C25.3937 16.2114 25.7681 16.4512 26.0847 16.7554C26.4012 17.0596 26.6536 17.4221 26.8275 17.8223C27.0013 18.2225 27.0932 18.6524 27.0978 19.0875V19.1Z" fill="#A4CADA"/>
</g>
<defs>
<clipPath id="clip0_266_2">
<rect width="39" height="38" fill="white"/>
</clipPath>
</defs>
</svg>
