<svg width="20" height="20" viewBox="0 0 20 20" fill="none" xmlns="http://www.w3.org/2000/svg">
<path d="M0 18.1979V2.58328C0.0130646 2.56293 0.0235974 2.54108 0.031367 2.5182C0.237213 1.47688 1.05341 0.783751 2.11008 0.783101C7.13533 0.780063 12.1606 0.780063 17.1858 0.783101C17.4114 0.784231 17.6355 0.818441 17.8511 0.884629C18.7529 1.16253 19.2998 1.95524 19.3005 2.95881V17.7859C19.3005 17.8549 19.3005 17.9232 19.3005 17.9922C19.2849 18.4232 19.1353 18.8388 18.8724 19.1816C18.6095 19.5243 18.2462 19.7773 17.8328 19.9056C17.7204 19.9401 17.606 19.9707 17.493 20H1.80948C1.77623 19.9853 1.74194 19.9732 1.70688 19.9635C1.0985 19.8412 0.614269 19.5268 0.307135 18.9873C0.167944 18.7465 0.0999821 18.4634 0 18.1979ZM6.03226 12.5246C5.96691 12.5773 5.91136 12.6177 5.85908 12.6613C5.04158 13.3512 4.72334 14.2233 4.96447 15.2646C5.25135 16.5012 6.46747 17.3511 7.68882 17.208C9.06636 17.0459 10.0525 15.9968 10.0662 14.6697C10.0734 13.9506 10.0662 13.2308 10.0662 12.5116V12.2949C11.2947 13.3154 12.9336 13.0544 13.7786 12.071C14.1961 11.6027 14.4209 10.9946 14.4079 10.3684C14.3942 9.47486 13.9884 8.78434 13.2669 8.25717C13.3225 8.21356 13.361 8.18297 13.3976 8.15304C13.8204 7.83253 14.1327 7.38906 14.2912 6.88401C14.4498 6.37896 14.4468 5.83731 14.2826 5.33403C14.1185 4.83076 13.8013 4.39076 13.375 4.07493C12.9486 3.75911 12.4343 3.58309 11.9031 3.57123C10.3957 3.55691 8.88796 3.55691 7.37973 3.57123C6.85004 3.584 6.33738 3.76011 5.91244 4.07529C5.48749 4.39047 5.17119 4.82919 5.00715 5.33095C4.84311 5.83271 4.83941 6.3728 4.99656 6.87674C5.15371 7.38068 5.46398 7.82365 5.88457 8.14457C5.93162 8.18037 5.97736 8.21747 6.02899 8.25782C4.51161 9.31736 4.51227 11.4638 6.03226 12.5246Z" fill="#A4CADA"/>
<path d="M9.22445 7.8074C8.52131 7.8074 7.83189 7.86598 7.15685 7.79309C6.27792 7.69807 5.69044 6.90601 5.7303 6.00853C5.75442 5.59561 5.92955 5.20578 6.22262 4.91271C6.51568 4.61964 6.90637 4.44362 7.32087 4.41791C7.92795 4.38667 8.5383 4.4062 9.14734 4.40425C9.17374 4.40726 9.19965 4.4136 9.22445 4.42312V7.8074Z" fill="#A4CADA"/>
<path d="M10.0766 7.8335V4.40171H10.438C10.9529 4.40171 11.4685 4.38739 11.9815 4.41733C12.4155 4.44496 12.8224 4.63732 13.1183 4.95478C13.4142 5.27225 13.5766 5.69064 13.5721 6.12379C13.5721 7.01867 12.8741 7.78339 11.975 7.82765C11.3496 7.86084 10.7209 7.8335 10.0766 7.8335Z" fill="#A4CADA"/>
<path d="M9.22259 8.67697V12.0795C9.20952 12.0886 9.19972 12.1023 9.18991 12.1023C8.55016 12.1023 7.90648 12.1413 7.27065 12.086C6.34598 12.0053 5.7121 11.2503 5.72909 10.3385C5.73804 9.91164 5.90869 9.50391 6.20683 9.19709C6.50497 8.89026 6.90855 8.70703 7.33665 8.68413C7.95549 8.64703 8.57826 8.67697 9.22259 8.67697Z" fill="#A4CADA"/>
<path d="M9.20231 12.9444C9.20231 13.6167 9.25524 14.2708 9.18989 14.9125C9.09645 15.836 8.21948 16.4556 7.24972 16.3619C6.36621 16.2766 5.69705 15.4859 5.73038 14.5663C5.76175 13.6825 6.51455 12.9607 7.43596 12.9457C8.02605 12.9373 8.61549 12.9444 9.20231 12.9444Z" fill="#A4CADA"/>
<path d="M13.5721 10.386C13.578 10.7324 13.4803 11.0728 13.2913 11.3637C13.1024 11.6546 12.8307 11.8829 12.511 12.0195C12.1913 12.1561 11.838 12.1948 11.4961 12.1307C11.1542 12.0666 10.8393 11.9025 10.5913 11.6595C10.3434 11.4164 10.1737 11.1054 10.104 10.7659C10.0342 10.4265 10.0675 10.0741 10.1995 9.75352C10.3316 9.43299 10.5565 9.15887 10.8456 8.9661C11.1347 8.77333 11.4748 8.67063 11.8227 8.6711C12.0508 8.66852 12.2772 8.71092 12.4888 8.79585C12.7005 8.88079 12.8931 9.00657 13.0557 9.16597C13.2183 9.32537 13.3477 9.51524 13.4363 9.72463C13.5249 9.93402 13.571 10.1588 13.5721 10.386Z" fill="#A4CADA"/>
</svg>
