<svg width="66" height="67" viewBox="0 0 66 67" fill="none" xmlns="http://www.w3.org/2000/svg">
<path d="M57.7969 66.1888H7.99027C7.87341 66.142 7.75655 66.0952 7.63968 66.0718C3.26904 65.4166 0.0436523 61.649 0.0436523 57.2261C0.0202799 41.243 0.0202799 25.2599 0.0436523 9.27673C0.0436523 4.36244 4.01696 0.360813 8.94854 0.360813C24.9353 0.337411 40.922 0.337411 56.8853 0.360813C60.882 0.360813 64.3645 3.05197 65.4396 6.88979C65.5799 7.35782 65.6734 7.84925 65.7902 8.31727V58.209C65.7435 58.3728 65.6967 58.5366 65.6734 58.7004C64.9488 62.3042 62.8453 64.6911 59.3394 65.8144C58.8019 65.9782 58.2877 66.0484 57.7969 66.1888Z" fill="#A4CADA"/>
<path d="M28.8386 42.6704C28.3478 42.5768 27.7635 42.5066 27.1792 42.3896C23.7668 41.6641 21.2192 39.9558 20.2609 36.4222C20.074 35.6734 19.9337 34.9246 19.8402 34.1523C19.5831 31.742 20.0038 29.4954 21.6165 27.5999C21.7568 27.4127 21.8035 27.1553 21.7334 26.9213C21.3594 25.4938 21.4062 24.0195 21.8269 22.6154C21.9905 22.007 22.2943 21.8432 22.8787 21.9134C24.468 22.1006 25.847 22.8261 27.1792 23.6685C27.5298 23.9025 27.9505 23.9961 28.3712 23.8791C31.0356 23.2005 33.8169 23.1303 36.5048 23.6919C37.5565 23.9025 38.3746 23.8557 39.2861 23.2473C40.3378 22.5218 41.5766 22.0538 42.8621 21.9134C43.3763 21.8666 43.6801 21.9836 43.8203 22.5452C44.1943 23.8557 44.3579 25.1662 44.0307 26.4767C43.8671 27.0149 44.0073 27.5999 44.3813 28.0212C45.7836 29.8231 46.0173 31.9058 45.8771 34.1055C45.5733 38.4582 43.2828 41.2663 39.0991 42.2726C38.3044 42.4598 37.4864 42.5768 36.6216 42.7406C37.6266 43.8405 37.9305 45.1041 37.9305 46.4614C37.9305 48.1931 37.9071 49.9248 37.9071 51.6565C37.9071 52.7564 38.4914 53.201 39.5198 52.85C50.7152 49.1058 56.6284 36.7499 51.6968 25.681C47.2327 15.6652 35.5932 10.8914 25.4262 14.9866C17.5497 18.1458 12.9921 24.0897 12.4312 32.5844C11.917 40.2601 15.2125 46.2976 21.5698 50.5801C22.9955 51.5395 24.6316 52.148 26.2209 52.85C27.0156 53.201 27.7401 52.7798 27.7635 52.0543C27.8102 50.9077 27.7635 49.7376 27.7635 48.5675C27.1324 48.6377 26.5715 48.708 25.9872 48.7314C23.5798 48.8484 21.5464 47.7953 20.6816 45.502C20.2609 44.3787 19.4663 43.3958 18.4613 42.7406C18.1808 42.5534 18.0172 42.179 17.8068 41.8982C18.1808 41.8046 18.5548 41.7109 18.9287 41.6407C18.9755 41.6173 19.0456 41.6641 19.1157 41.6875C20.4012 41.945 21.2426 42.7874 21.9438 43.8405C23.2526 45.8062 25.2393 46.4146 27.4363 45.5254C27.5999 45.4552 27.7635 45.3382 27.857 45.1743C28.1842 44.3787 28.5114 43.5129 28.8386 42.6704Z" fill="white"/>
</svg>
