<svg width="25" height="20" viewBox="0 0 25 20" fill="none" xmlns="http://www.w3.org/2000/svg">
<path d="M0 9.95654C0.0918833 9.82491 0.195434 9.70181 0.309399 9.58875C3.92515 6.56739 7.54381 3.55126 11.1654 0.540362C12.0369 -0.18215 12.9703 -0.179535 13.8401 0.544719C14.9714 1.48773 16.1012 2.4322 17.2296 3.37811C17.2906 3.42954 17.3551 3.47747 17.4518 3.55242C17.4579 3.43999 17.4658 3.36417 17.4658 3.29096C17.4658 2.42813 17.4658 1.5653 17.4658 0.703341C17.4658 0.209174 17.6279 0.0505528 18.1273 0.0505528C19.0139 0.0505528 19.9009 0.0505528 20.7881 0.0505528C21.2622 0.0505528 21.4331 0.224862 21.4331 0.700726C21.4331 2.67739 21.4331 4.65493 21.4287 6.63247C21.4244 6.71162 21.44 6.79059 21.4741 6.86215C21.5082 6.93371 21.5597 6.99558 21.6239 7.04209C22.6419 7.87878 23.6538 8.72331 24.6682 9.56958C25.0805 9.91297 25.104 10.1474 24.7641 10.5536C24.5131 10.8525 24.2638 11.1532 24.0111 11.4512C23.7304 11.7816 23.4629 11.8051 23.1291 11.5262C19.6917 8.66172 16.2549 5.79636 12.8187 2.93014L12.4997 2.66868C12.1104 2.99173 11.7232 3.31362 11.3379 3.63435L1.89125 11.5062C1.53218 11.8051 1.27071 11.7842 0.973517 11.4277C0.646687 11.0364 0.324215 10.6433 0 10.2485V9.95654Z" fill="white"/>
<path d="M14.4885 19.8799V13.9735H10.5108V19.9087H4.75861C3.9594 19.9087 3.56895 19.5217 3.56895 18.7312C3.56895 16.3711 3.56895 14.0115 3.56895 11.6525C3.56309 11.5685 3.57874 11.4845 3.61442 11.4082C3.65011 11.332 3.70465 11.2661 3.77289 11.2168C6.60716 8.88741 9.43881 6.55457 12.2679 4.21825C12.3419 4.15724 12.4186 4.09797 12.5093 4.02563L13.2065 4.59998C15.899 6.82184 18.5889 9.04516 21.2761 11.2699C21.3672 11.3537 21.422 11.4697 21.4287 11.5933C21.4374 14.0092 21.4391 16.4257 21.4339 18.8428C21.4339 19.4572 21.033 19.8974 20.4264 19.9017C18.482 19.9139 16.5376 19.9017 14.5931 19.9017C14.5577 19.8975 14.5227 19.8902 14.4885 19.8799V19.8799Z" fill="white"/>
</svg>
