<svg width="60" height="68" viewBox="0 0 60 68" fill="none" xmlns="http://www.w3.org/2000/svg">
<path d="M30.0638 67.9742H29.7944L22.1967 65.5754C16.97 63.9105 11.7253 62.2636 6.49862 60.5988C5.52872 60.2945 4.90007 59.7216 4.81027 58.6654C4.55881 55.5327 4.30735 52.4179 4.0559 49.2851C3.85832 46.7789 3.67871 44.2548 3.48114 41.7486C3.22968 38.598 2.97822 35.4473 2.72676 32.3146C2.52919 29.8442 2.34958 27.3738 2.152 24.9034C1.91851 21.7528 1.66705 18.6021 1.41559 15.4515C1.21802 12.8916 1.00248 10.3317 0.804911 7.7718C0.679182 6.08907 0.553454 4.40633 0.445686 2.7236C0.391802 1.84644 0.751027 1.14828 1.57724 0.808156C2.02628 0.629142 2.51123 0.557536 2.99618 0.575438C20.9754 0.557536 38.9366 0.557536 56.9158 0.575438C57.0954 0.575438 57.2751 0.575438 57.4547 0.575438C58.712 0.664945 59.5202 1.52421 59.4484 2.79521C59.3586 4.44214 59.2328 6.07116 59.0891 7.71809C58.8377 10.9045 58.5862 14.1089 58.3348 17.2953C58.1372 19.7299 57.9576 22.1466 57.778 24.5812C57.5265 27.7676 57.2751 30.972 57.0236 34.1584C56.826 36.593 56.6464 39.0097 56.4668 41.4443C56.2153 44.6307 55.9639 47.8172 55.7124 51.0215C55.5148 53.4561 55.3173 55.8728 55.1556 58.3074C55.0658 59.6321 54.4192 60.3482 53.1619 60.742C48.941 62.0309 44.7381 63.3914 40.5352 64.7161C37.0148 65.7723 33.5483 66.8643 30.0638 67.9742Z" fill="#A4CADA"/>
<path d="M13.1084 38.8307C13.1084 39.0813 13.0905 39.2245 13.1084 39.3856C13.3779 43.0196 13.6652 46.6357 13.9167 50.2697C13.9526 50.7351 14.222 50.8246 14.5813 50.9499C19.5206 52.5073 24.4599 54.0827 29.4173 55.6222C29.7765 55.7296 30.1357 55.7296 30.4949 55.6222C35.4163 54.0827 40.3377 52.5252 45.2591 50.9857C45.744 50.8246 45.9416 50.6098 45.9775 50.0727C46.1751 47.0474 46.4265 44.04 46.66 41.0146C46.9474 37.3628 47.2528 33.7109 47.5401 30.059C47.594 29.4145 47.63 28.7701 47.6659 28.0361H46.7499C38.2542 28.0361 29.7406 28.0361 21.2449 28.054C20.6701 28.054 20.4726 27.875 20.4546 27.3201C20.4366 26.6577 20.3289 26.0133 20.257 25.3509C20.0774 23.6503 19.8978 21.9676 19.7002 20.1953H47.2887C47.4683 20.1953 47.6479 20.1774 47.8096 20.1953C48.1688 20.2311 48.3125 20.0879 48.3484 19.712C48.4562 18.1367 48.5999 16.5613 48.7256 14.986C48.7795 14.2879 48.8154 13.5897 48.8693 12.8737H10.989C11.0429 13.4286 11.0788 13.9119 11.1147 14.3774C11.3482 17.4743 11.5817 20.5892 11.8152 23.6861C12.1026 27.338 12.4259 30.9899 12.6774 34.6417C12.7133 35.2862 12.8749 35.4831 13.5395 35.4831C21.8915 35.4652 30.2435 35.4473 38.5775 35.4652H39.3678C39.3857 35.6263 39.3857 35.7874 39.3857 35.9485C39.1882 38.6338 38.9726 41.319 38.7751 44.0221C38.7391 44.4875 38.5954 44.7023 38.1285 44.8097C35.6139 45.4542 33.1173 46.1702 30.6207 46.8147C30.2974 46.8863 29.974 46.8863 29.6507 46.8147C27.1003 46.1523 24.5677 45.4363 22.0172 44.7739C21.5861 44.6665 21.4604 44.4875 21.4604 44.0579C21.4784 42.5721 21.4425 41.0683 21.4784 39.5825C21.4963 39.0097 21.3706 38.7412 20.724 38.7949C20.0774 38.8486 19.4128 38.8128 18.7483 38.8128L13.1084 38.8307Z" fill="white"/>
</svg>
