<svg width="64" height="64" viewBox="0 0 64 64" fill="none" xmlns="http://www.w3.org/2000/svg">
<path d="M63.8678 0.686279H0.318604V63.5428H63.8678V0.686279Z" fill="#A4CADA"/>
<path d="M38.1082 52.42C38.1082 52.4847 38.1082 52.5494 38.1082 52.5925C38.1517 52.6787 38.1953 52.7865 38.2389 52.8727C39.0453 54.3385 40.1785 55.5887 41.5951 56.5156C44.8205 58.6065 48.3728 59.0161 52.0341 58.2401C57.1555 57.1407 59.5527 53.4763 58.681 48.3675C58.2234 45.6946 56.5235 43.9055 54.2134 42.6768C52.4917 41.7284 50.6393 41.017 48.874 40.1333C48.0459 39.7453 47.2831 39.2926 46.5639 38.7537C45.7576 38.107 45.6486 37.1586 45.8884 36.167C46.1063 35.2832 46.8255 34.615 47.7408 34.4857C49.2881 34.2054 50.6611 34.5288 51.6636 35.8437C51.9251 36.1886 52.1648 36.5334 52.4263 36.9215L57.1119 33.9468C55.7607 31.5325 53.8429 29.9374 51.1405 29.3985C49.5278 29.0536 47.8498 29.0536 46.2371 29.3985C43.2732 30.0667 41.0502 31.6619 40.1785 34.6581C39.285 37.6975 39.808 40.5213 42.0745 42.8924C43.4693 44.3582 45.2999 45.1989 47.1306 45.9964C48.4818 46.6 49.8329 47.2035 51.1623 47.8718C52.2738 48.4322 52.9276 49.3807 52.775 50.674C52.6225 52.032 51.6854 52.7218 50.4432 53.0667C47.8062 53.8211 45.1474 52.8296 43.4693 50.48C43.295 50.2429 43.1206 49.9842 42.9245 49.704L38.1082 52.42Z" fill="white"/>
<path d="M34.9264 29.4632H28.9115C28.8897 29.7865 28.8679 30.0883 28.8679 30.3901C28.8679 36.555 28.8679 42.72 28.8679 48.8849C28.8679 49.4454 28.8679 50.0274 28.8025 50.5878C28.6935 51.8812 28.0397 52.7218 26.9719 53.0236C25.3156 53.4978 23.899 53.0236 22.8747 51.644C22.526 51.1698 22.2209 50.674 21.8504 50.1351L16.9688 53.0667C17.8841 54.9636 19.1481 56.4294 20.9787 57.3779C23.5067 58.6712 26.1873 58.8221 28.9115 58.1754C31.81 57.4856 33.706 55.6965 34.4688 52.8512C34.7521 51.8165 34.8828 50.7603 34.8828 49.704C34.9264 43.1726 34.9046 36.6413 34.9046 30.1099L34.9264 29.4632Z" fill="white"/>
</svg>
