<svg width="51" height="56" viewBox="0 0 51 56" fill="none" xmlns="http://www.w3.org/2000/svg">
<path d="M15.6175 1V12.14H2.7533V21.0494H15.6175V21.2569C15.7065 19.7772 15.9456 18.3103 16.3312 16.8789C16.8127 15.0535 17.7394 13.376 19.0285 11.9968C20.297 10.6523 21.9859 9.62176 24.0954 8.90524C24.8248 8.65903 25.57 8.46216 26.3258 8.31598V2.72629L15.6175 1Z" stroke="#009FE3" stroke-width="1.6" stroke-miterlimit="10"/>
<path d="M15.2896 49.1161V39.5157C15.1402 41.0373 14.7702 42.2974 14.1795 43.2961C13.3869 44.6393 11.7962 45.3102 9.40736 45.3088C8.21473 45.3051 7.02472 45.1968 5.85104 44.9851C4.71008 44.7928 3.59009 44.492 2.50635 44.0867L1 52.4214C2.40053 52.9851 3.84187 53.4415 5.31157 53.7867C6.88847 54.1698 8.82501 54.3621 11.1212 54.3635C14.0468 54.3635 16.4674 53.9679 18.3832 53.1767C19.9352 52.5645 21.3376 51.6263 22.4956 50.4254C22.2176 50.3839 21.9478 50.3445 21.6823 50.2988C18.9545 49.8451 16.8236 49.4509 15.2896 49.1161Z" stroke="#009FE3" stroke-width="1.6" stroke-miterlimit="10"/>
<path d="M48.672 30.9569C47.8132 29.4561 46.5902 28.1959 45.1157 27.2927C43.5405 26.3478 41.8147 25.6804 40.0136 25.3195C38.0536 24.9072 36.0555 24.7027 34.0525 24.7095C32.817 24.7011 31.582 24.7606 30.3531 24.8879C29.642 24.9623 28.9355 25.0752 28.2367 25.2261C28.0562 25.2655 27.886 25.3112 27.7283 25.3568V24.3484C27.712 23.4241 27.885 22.5061 28.2367 21.6511C28.5038 21.0183 28.893 20.4444 29.382 19.9622C30.4886 18.8556 32.4037 18.3023 35.1273 18.3023C36.9328 18.3022 38.7359 18.4347 40.522 18.6986C42.0881 18.915 43.6284 19.2883 45.1199 19.8128L46.4872 11.1917C45.8647 11.0029 45.0846 10.7954 44.1488 10.5692C43.2131 10.3431 42.1985 10.1647 41.0967 9.99451C39.995 9.82437 38.8351 9.68328 37.613 9.56294C36.3909 9.4426 35.1584 9.38658 33.9135 9.38658C32.0114 9.36629 30.1118 9.52888 28.2408 9.87209C27.4852 10.0193 26.7401 10.2161 26.0104 10.4614C23.9023 11.1806 22.2134 12.2119 20.9435 13.555C19.6544 14.9342 18.7276 16.6117 18.2462 18.4371C17.8606 19.8685 17.6215 21.3354 17.5325 22.8151C17.4827 23.4666 17.4598 24.1409 17.4598 24.8339V47.1263C18.9925 47.461 21.1234 47.8553 23.8525 48.309C24.1181 48.3546 24.3878 48.394 24.6658 48.4355C27.6833 48.8334 30.7249 49.0192 33.7683 48.9916C35.9982 49.0122 38.2239 48.7952 40.4079 48.3442C42.2407 47.9765 43.9852 47.2579 45.5452 46.2279C46.9683 45.2629 48.1091 43.9366 48.8505 42.3852C49.6182 40.8028 50.0013 38.8621 50 36.5632C50.0013 34.3597 49.5587 32.4909 48.672 30.9569ZM37.6753 39.7585C36.5507 40.4058 35.0056 40.7295 33.04 40.7295C31.988 40.7295 30.9797 40.7067 30.0231 40.6589C29.1932 40.6175 28.4898 40.5594 27.9483 40.4784C27.8715 40.4639 27.7947 40.4556 27.7242 40.4432V32.3242C27.8674 32.2931 28.0375 32.2599 28.2325 32.2288C28.6143 32.1665 29.0895 32.1043 29.6663 32.0358C30.4523 31.9457 31.2426 31.8979 32.0337 31.8926C32.9827 31.8903 33.9309 31.9499 34.8721 32.0711C35.683 32.1704 36.4722 32.4017 37.2084 32.7558C37.8467 33.0643 38.3926 33.5351 38.7915 34.121C39.1956 34.7685 39.3958 35.5225 39.3663 36.2851C39.3663 37.9547 38.8047 39.1125 37.6815 39.7585H37.6753Z" stroke="#D6E869" stroke-width="1.6" stroke-miterlimit="10"/>
</svg>
