<svg width="103" height="432" viewBox="0 0 103 432" fill="none" xmlns="http://www.w3.org/2000/svg">
<path d="M97.4 33.8C97.4 32.84 97.36 31.88 97.28 30.92C97.2 29.96 97.08 29.12 96.92 28.4C96.76 27.52 96.64 26.72 96.56 26L59.84 26L59.84 33.2C59.84 35.2 60.12 37.16 60.68 39.08C61.24 41.08 62.24 42.84 63.68 44.36C65.12 45.88 67.04 47.08 69.44 47.96C71.92 48.92 75 49.4 78.68 49.4C82.36 49.4 85.4 48.92 87.8 47.96C90.2 47.08 92.12 45.88 93.56 44.36C95 42.92 96 41.28 96.56 39.44C97.12 37.6 97.4 35.72 97.4 33.8ZM102.2 33.8C102.2 35.56 102.12 37.6 101.96 39.92C101.8 42.24 101.4 44.6 100.76 47C100.2 49.4 99.4 51.72 98.36 53.96C97.32 56.28 95.88 58.36 94.04 60.2C92.28 62.04 90.08 63.48 87.44 64.52C84.88 65.64 81.76 66.2 78.08 66.2C74.64 66.2 71.68 65.64 69.2 64.52C66.72 63.48 64.6 62.08 62.84 60.32C61.16 58.56 59.8 56.6 58.76 54.44C57.72 52.28 56.92 50.12 56.36 47.96C55.8 45.88 55.44 43.88 55.28 41.96C55.12 40.12 55.04 38.6 55.04 37.4L55.04 26L23 26L23 10.4L86.6 10.4C90.2 10.4 93.08 9.88 95.24 8.84C97.48 7.88 98.6 5.6 98.6 2L98.6 0.799999L102.2 0.799999L102.2 33.8ZM80.6 106.395C80.6 109.915 79.8 112.755 78.2 114.915C77.72 115.635 77.16 116.235 76.52 116.715C75.88 117.195 75.28 117.595 74.72 117.915C74.16 118.315 73.68 118.595 73.28 118.755C72.96 118.915 72.8 118.995 72.8 118.995L68.12 112.875C68.92 112.315 69.68 111.595 70.4 110.715C71.04 109.995 71.6 109.115 72.08 108.075C72.56 107.115 72.8 105.955 72.8 104.595C72.8 102.035 72.44 99.8753 71.72 98.1153C71 96.3553 70.12 94.9553 69.08 93.9153C68.52 93.9953 67.92 94.0753 67.28 94.1553C66.72 94.2353 66.08 94.2753 65.36 94.2753C64.72 94.3553 64.04 94.3953 63.32 94.3953L23 94.3953L23 78.7953L63.8 78.7953C65.56 78.7953 67.16 78.6753 68.6 78.4353C70.12 78.2753 71.4 77.9153 72.44 77.3553C73.56 76.7953 74.4 75.9553 74.96 74.8353C75.52 73.7153 75.8 72.2753 75.8 70.5153L75.8 69.3153L79.4 69.3153L79.4 81.1953C79.4 83.9153 79.04 86.0353 78.32 87.5553C77.68 89.1553 76.56 90.3953 74.96 91.2753C76.24 92.7153 77.48 94.6753 78.68 97.1553C79.96 99.7153 80.6 102.795 80.6 106.395ZM51.2 164.017C54.64 164.017 57.8 163.737 60.68 163.177C63.64 162.697 66.2 161.937 68.36 160.897C70.52 159.857 72.2 158.537 73.4 156.937C74.6 155.337 75.2 153.497 75.2 151.417C75.2 149.337 74.6 147.497 73.4 145.897C72.2 144.297 70.52 142.977 68.36 141.937C66.2 140.897 63.64 140.097 60.68 139.537C57.8 139.057 54.64 138.817 51.2 138.817C47.76 138.817 44.56 139.057 41.6 139.537C38.72 140.097 36.2 140.897 34.04 141.937C31.88 142.977 30.2 144.297 29 145.897C27.8 147.497 27.2 149.337 27.2 151.417C27.2 153.497 27.8 155.337 29 156.937C30.2 158.537 31.88 159.857 34.04 160.897C36.2 161.937 38.72 162.697 41.6 163.177C44.56 163.737 47.76 164.017 51.2 164.017ZM51.2 122.617C55.28 122.617 59.12 123.257 62.72 124.537C66.32 125.897 69.44 127.817 72.08 130.297C74.72 132.777 76.8 135.777 78.32 139.297C79.84 142.897 80.6 146.937 80.6 151.417C80.6 155.897 79.84 159.897 78.32 163.417C76.8 167.017 74.72 170.057 72.08 172.537C69.44 175.017 66.32 176.897 62.72 178.177C59.12 179.537 55.28 180.217 51.2 180.217C47.12 180.217 43.28 179.537 39.68 178.177C36.08 176.897 32.96 175.017 30.32 172.537C27.68 170.057 25.6 167.017 24.08 163.417C22.56 159.897 21.8 155.897 21.8 151.417C21.8 146.937 22.56 142.897 24.08 139.297C25.6 135.777 27.68 132.777 30.32 130.297C32.96 127.817 36.08 125.897 39.68 124.537C43.28 123.257 47.12 122.617 51.2 122.617ZM63.8 193.988C67.4 193.988 70.28 193.468 72.44 192.428C74.68 191.468 75.8 189.188 75.8 185.588L75.8 184.388L79.4 184.388L79.4 198.788C79.4 200.868 79.12 202.588 78.56 203.948C78.08 205.388 77.24 206.508 76.04 207.308C74.84 208.188 73.24 208.788 71.24 209.108C69.24 209.428 66.76 209.588 63.8 209.588L26 209.588C21.04 209.588 16.92 209.148 13.64 208.268C10.28 207.388 7.63999 205.908 5.71999 203.828C3.71999 201.828 2.31999 199.148 1.51999 195.788C0.63999 192.508 0.19999 188.388 0.19999 183.428L3.19999 183.428C3.51999 185.188 4.11999 186.748 4.99999 188.108C5.87999 189.468 7.19999 190.548 8.95999 191.348C10.72 192.228 13 192.868 15.8 193.268C18.52 193.748 21.92 193.988 26 193.988L63.8 193.988ZM92.6 208.388C90.52 208.388 88.88 207.748 87.68 206.468C86.48 205.188 85.88 203.628 85.88 201.788C85.88 198.748 86.8 196.468 88.64 194.948C90.48 193.508 92.6 192.788 95 192.788C97.08 192.788 98.72 193.428 99.92 194.708C101.12 195.988 101.72 197.548 101.72 199.388C101.72 202.428 100.8 204.668 98.96 206.108C97.12 207.628 95 208.388 92.6 208.388ZM27.2 250.34C27.2 254.5 28.16 257.86 30.08 260.42C32 263.06 34.36 265.42 37.16 267.5L34.4 271.22C33.04 270.34 31.6 269.26 30.08 267.98C28.64 266.78 27.28 265.26 26 263.42C24.8 261.66 23.8 259.54 23 257.06C22.2 254.66 21.8 251.82 21.8 248.54C21.8 244.3 22.52 240.46 23.96 237.02C25.48 233.66 27.56 230.78 30.2 228.38C32.84 225.98 35.92 224.14 39.44 222.86C43.04 221.58 46.96 220.94 51.2 220.94C56 220.94 60.24 221.62 63.92 222.98C67.6 224.34 70.64 226.18 73.04 228.5C75.52 230.9 77.4 233.7 78.68 236.9C79.96 240.1 80.6 243.58 80.6 247.34C80.6 251.1 80 254.58 78.8 257.78C77.68 260.98 76.08 263.74 74 266.06C71.92 268.46 69.4 270.34 66.44 271.7C63.48 273.06 60.2 273.74 56.6 273.74C55.72 273.74 54.8 273.7 53.84 273.62C52.96 273.62 52.16 273.58 51.44 273.5C50.56 273.42 49.76 273.34 49.04 273.26L49.04 237.14C41.12 237.14 35.48 238.34 32.12 240.74C28.84 243.22 27.2 246.42 27.2 250.34ZM54.44 257.54C58.44 257.54 61.76 257.26 64.4 256.7C67.04 256.22 69.16 255.54 70.76 254.66C72.36 253.78 73.48 252.7 74.12 251.42C74.84 250.22 75.2 248.86 75.2 247.34C75.2 245.98 74.84 244.66 74.12 243.38C73.48 242.18 72.36 241.1 70.76 240.14C69.16 239.26 67.04 238.54 64.4 237.98C61.76 237.42 58.44 237.14 54.44 237.14L54.44 257.54ZM75.2 312.475C75.2 308.235 73.24 304.755 69.32 302.035C65.4 299.395 59.36 298.075 51.2 298.075C35.2 298.075 27.2 303.075 27.2 313.075C27.2 317.235 28.16 320.595 30.08 323.155C32 325.795 34.36 328.155 37.16 330.235L34.4 333.955C33.04 333.075 31.6 331.995 30.08 330.715C28.64 329.515 27.28 327.995 26 326.155C24.8 324.315 23.8 322.115 23 319.555C22.2 317.075 21.8 314.115 21.8 310.675C21.8 305.875 22.56 301.675 24.08 298.075C25.68 294.475 27.8 291.475 30.44 289.075C33.16 286.675 36.28 284.875 39.8 283.675C43.4 282.475 47.2 281.875 51.2 281.875C55.2 281.875 58.96 282.475 62.48 283.675C66.08 284.875 69.2 286.675 71.84 289.075C74.56 291.475 76.68 294.475 78.2 298.075C79.8 301.675 80.6 305.875 80.6 310.675C80.6 315.235 80.28 319.075 79.64 322.195C79 325.395 77.92 327.755 76.4 329.275C74.88 330.795 72.84 331.675 70.28 331.915C67.72 332.155 64.16 332.275 59.6 332.275L59.6 328.675C64.72 328.355 68.6 326.755 71.24 323.875C73.88 321.075 75.2 317.275 75.2 312.475ZM79.4 362.406L79.4 375.606L74 375.606L74 362.406L38.6 362.406C34.12 362.406 31.08 362.926 29.48 363.966C27.96 365.086 27.2 366.646 27.2 368.646C27.2 369.926 27.36 371.126 27.68 372.246C28 373.446 28.36 374.486 28.76 375.366C29.24 376.326 29.8 377.246 30.44 378.126L27.08 379.806C26.12 378.766 25.24 377.526 24.44 376.086C23.8 374.806 23.2 373.166 22.64 371.166C22.08 369.246 21.8 366.926 21.8 364.206C21.8 358.766 23.28 354.486 26.24 351.366C29.2 348.326 33.56 346.806 39.32 346.806L74 346.806L74 339.606L79.4 339.606L79.4 346.806L90.2 346.806L97.4 352.806L97.4 362.406L79.4 362.406ZM27.2 404.588C27.2 409.068 27.96 412.188 29.48 413.948C31.08 415.708 33.04 416.588 35.36 416.588C37.68 416.588 39.52 415.548 40.88 413.468C42.32 411.388 43.72 408.828 45.08 405.788L47.72 399.548C49.8 394.748 52.16 390.988 54.8 388.268C57.44 385.548 60.72 384.188 64.64 384.188C67.28 384.188 69.56 384.748 71.48 385.868C73.48 386.988 75.16 388.548 76.52 390.548C77.88 392.628 78.88 395.068 79.52 397.868C80.24 400.668 80.6 403.708 80.6 406.988C80.6 411.948 80.16 415.988 79.28 419.108C78.4 422.308 77.2 424.708 75.68 426.308C74.32 427.748 72.36 428.588 69.8 428.828C67.24 429.068 64.44 429.188 61.4 429.188L61.4 424.988C65.24 424.348 68.48 422.788 71.12 420.308C73.84 417.828 75.2 414.188 75.2 409.388C75.2 405.788 74.4 403.188 72.8 401.588C71.28 399.988 69.36 399.188 67.04 399.188C64.88 399.188 63.12 399.948 61.76 401.468C60.48 402.988 59.28 405.068 58.16 407.708L55.16 414.908C52.84 420.428 50.4 424.588 47.84 427.388C45.36 430.188 42 431.588 37.76 431.588C35.12 431.588 32.8 430.948 30.8 429.668C28.88 428.468 27.24 426.788 25.88 424.628C24.52 422.468 23.52 419.868 22.88 416.828C22.16 413.868 21.8 410.588 21.8 406.988C21.8 402.028 22.24 397.948 23.12 394.748C24 391.628 25.2 389.268 26.72 387.668C28.08 386.228 30.04 385.388 32.6 385.148C35.16 384.908 37.96 384.788 41 384.788L41 388.988C37.16 389.628 33.88 391.188 31.16 393.668C28.52 396.148 27.2 399.788 27.2 404.588Z" fill="#A4CADA" fill-opacity="0.1"/>
</svg>
