<svg width="70" height="70" viewBox="0 0 70 70" fill="none" xmlns="http://www.w3.org/2000/svg">
<path d="M37.7294 69.3909H32.3711C31.493 69.2656 30.597 69.1582 29.7188 69.0329C15.7765 66.8847 4.4326 56.2155 1.45775 42.4672C1.13518 40.9635 0.955969 39.4419 0.705078 37.9203V32.2992C0.74092 32.1023 0.794682 31.9054 0.812603 31.7085C1.63696 23.8319 4.73726 16.9577 10.2748 11.3188C17.909 3.51378 27.2816 0.0230131 38.1954 0.918082C46.0447 1.56253 52.9263 4.65947 58.5892 10.0836C66.9224 18.0676 70.4707 27.8955 69.1625 39.3703C67.5317 53.6377 56.5642 65.6316 42.4964 68.639C40.9193 68.9613 39.3244 69.1403 37.7294 69.3909Z" fill="#A4CADA"/>
<path d="M40.7042 54.2821C40.7401 54.3716 40.7759 54.4611 40.8297 54.5506C41.1522 54.4969 41.4748 54.4074 41.7795 54.2821C44.1629 53.1364 45.0411 50.5049 43.93 47.8913C42.8547 45.3493 40.8297 43.8993 38.2491 43.2011C35.5251 42.4493 32.8012 42.6999 30.0951 43.3085C29.6292 43.4159 29.3245 43.3622 28.9661 43.0221C28.0521 42.1628 27.1023 41.3573 26.1525 40.5338C24.3246 38.9943 22.4071 37.5443 20.6867 35.8973C18.5362 33.8208 17.7835 31.243 18.8409 28.3609C19.253 27.2689 19.8086 26.2485 20.4896 25.3176C21.9591 23.2769 23.8945 21.7195 25.9733 20.341C31.475 16.725 37.2814 13.8249 44.0016 13.2879C46.2955 13.1089 48.5715 13.2879 50.6861 14.2725C52.6574 15.1854 53.4638 16.7966 53.1054 18.9268C52.7649 20.9318 51.7614 22.6145 50.4352 24.1003C47.0482 27.8596 42.7293 29.8288 37.8011 30.5448C34.8979 30.9566 32.1202 30.7596 29.8621 28.5399C29.7546 28.4504 29.5933 28.4146 29.4679 28.4504C29.3604 28.5578 29.3066 28.701 29.3245 28.8621C29.5396 29.3454 29.7188 29.8646 30.0414 30.2763C31.1345 31.5831 32.5682 32.3171 34.199 32.6572C35.9373 32.9973 37.7115 33.051 39.4677 32.8183C43.249 32.3708 46.8511 31.3862 49.9872 29.1306C53.1771 26.8213 55.5785 23.9034 56.5104 20.0009C57.1376 17.4052 56.9405 14.8811 55.0409 12.7509C53.9477 11.5157 52.5499 10.728 50.9908 10.2089C46.6718 8.75885 42.2992 8.93786 37.9623 10.0656C32.5144 11.4978 27.4966 13.9502 22.8551 17.1367C20.1849 18.9626 17.7835 21.1108 15.9018 23.7602C15.2925 24.6374 14.7549 25.5682 14.2711 26.517C12.6403 29.6498 13.1241 32.6035 15.3463 35.235C16.5649 36.685 17.9269 38.0097 19.4143 39.1912C21.5111 40.8739 23.7512 42.3418 25.9196 43.9172C26.1884 44.132 26.4572 44.3647 26.6902 44.5974C26.6185 44.6869 26.5468 44.7585 26.4751 44.8122C26.1525 45.0092 25.812 45.1882 25.4716 45.3672C23.0343 46.6919 20.6867 48.1598 18.6079 50.0394C16.4753 51.9728 15.185 54.2642 15.6151 57.2537C15.9198 59.3482 17.0667 60.5655 19.1814 60.7982C20.3104 60.9414 21.4573 60.8877 22.5684 60.6729C28.8048 59.3303 32.8549 52.9753 30.9732 46.1548C30.7582 45.3851 30.7582 45.3135 31.5467 45.1882C33.9481 44.7943 36.3136 44.8659 38.6254 45.6536C39.8261 46.0653 40.9372 46.674 41.7615 47.6407C43.4999 49.6993 43.6612 52.1518 41.1522 53.8524C41.0089 53.9957 40.8476 54.121 40.7042 54.2821Z" fill="white"/>
<path d="M28.6794 49.0012C28.6256 52.5457 26.1884 56.0365 22.8731 57.2359C22.3892 57.397 21.8874 57.5044 21.3677 57.5402C20.1491 57.6297 19.3606 56.9673 19.504 55.75C19.6294 54.7834 19.9161 53.8525 20.3642 52.9753C21.2423 51.2389 22.6939 49.9858 24.253 48.8938C25.3641 48.1241 26.5648 47.4617 27.7296 46.7456C28.088 46.5129 28.321 46.6024 28.3927 47.0321C28.4823 47.6765 28.5898 48.3389 28.6794 49.0012Z" fill="#A4CADA"/>
</svg>
