<svg width="70" height="68" viewBox="0 0 70 68" fill="none" xmlns="http://www.w3.org/2000/svg">
<path d="M69.6641 12.5942C69.6641 5.70879 64.3211 0.361574 57.441 0.361574C42.4365 0.337158 27.4077 0.337158 12.4032 0.361574C5.54748 0.361574 0.204425 5.7332 0.180028 12.5942C0.15563 26.8535 0.180028 41.0883 0.204425 55.3475C0.204425 56.373 0.326413 57.3741 0.54599 58.3508C1.83906 63.7712 6.69416 67.5802 12.2568 67.5802C19.82 67.6046 27.3589 67.5802 34.9221 67.5802C42.4365 67.5802 49.9266 67.6046 57.441 67.5802C64.3211 67.5558 69.6641 62.2086 69.6641 55.3475C69.6885 41.1127 69.6885 26.8535 69.6641 12.5942Z" fill="#A4CADA"/>
<path d="M51.6588 40.9906C51.4149 42.0406 51.0489 43.0661 50.6097 44.0427C49.9998 45.4589 49.1947 46.8262 48.2432 48.047C46.9501 49.805 45.2667 51.2212 43.3637 52.2711C42.583 52.6862 41.7534 53.0036 40.8751 53.2477C38.655 53.8826 36.3616 54.1756 34.0682 54.0779C32.2384 53.9802 30.433 53.614 28.7008 53.028C26.749 52.3687 24.9192 51.4165 23.2845 50.1957C22.821 49.8538 22.3818 49.4632 21.9671 49.0481C21.1619 48.2668 20.3812 47.4854 19.6005 46.6797C18.5514 45.6298 17.4291 44.6775 16.2092 43.823C15.1114 43.0416 13.9159 42.4801 12.6228 42.1138C11.2078 41.7476 9.7439 41.772 8.32884 42.1626C6.66981 42.6021 5.15717 43.4323 3.8641 44.5555C3.03459 45.2635 2.30266 46.0693 1.69272 46.9727C1.64393 47.0215 1.61953 47.0704 1.57073 47.1192L1.47314 47.0948C1.52194 46.875 1.54634 46.6309 1.59513 46.4111C1.9123 45.0682 2.37585 43.7741 2.96139 42.5289C3.59573 41.2592 4.37645 40.0872 5.30355 39.0373C6.57222 37.5968 8.13366 36.4248 9.86589 35.5946C11.4517 34.8377 13.1596 34.3249 14.9162 34.0808C16.5264 33.861 18.161 33.8122 19.7713 33.8854C21.2595 33.9587 22.7234 34.2029 24.1384 34.6424C25.1387 34.9354 26.1146 35.326 27.0417 35.7899C28.4324 36.498 29.7011 37.377 30.8478 38.4269C31.5065 39.0129 32.1408 39.5989 32.7752 40.2093C33.4583 40.893 34.117 41.6255 34.7757 42.3336C36.4104 44.116 38.6306 45.3124 41.0215 45.6786C42.9245 46.0204 44.9007 45.7275 46.6329 44.8729C47.7064 44.3845 48.6579 43.7009 49.5118 42.8707C50.2194 42.2359 50.8781 41.5034 51.4392 40.7465C51.488 40.6977 51.5368 40.6488 51.5856 40.6244C51.7564 40.7709 51.6832 40.893 51.6588 40.9906Z" fill="white"/>
<path d="M68.3223 20.9447C68.0539 22.0434 67.688 23.1178 67.2244 24.1433C66.6877 25.3885 66.0045 26.5605 65.2238 27.6592C64.0039 29.3928 62.4181 30.8578 60.6127 31.9565C59.5392 32.5669 58.3925 33.0553 57.197 33.3483C56.1723 33.6169 55.1232 33.8122 54.0498 33.9587C53.6106 34.0075 53.1714 34.0319 52.7323 34.0564C52.3907 34.0808 52.0248 34.1296 51.6588 34.1052C49.7558 34.0808 47.8772 33.7878 46.0718 33.2506C44.12 32.6646 42.2902 31.7856 40.6067 30.6625C39.8748 30.1741 39.1917 29.5881 38.5573 28.9777C37.6302 28.0743 36.7275 27.1221 35.776 26.2187C34.8001 25.2664 33.751 24.4118 32.6043 23.6549C31.6284 22.9957 30.5793 22.5074 29.4571 22.1899C27.676 21.7016 25.773 21.8237 24.0408 22.4829C22.211 23.191 20.5764 24.3142 19.2833 25.8036C18.9661 26.1698 18.6734 26.5605 18.3806 26.9512L18.2586 27.1465L18.161 27.1221C18.2098 26.9023 18.2342 26.6582 18.283 26.4384C18.7466 24.363 19.5761 22.4097 20.7471 20.6517C21.9914 18.796 23.6261 17.2822 25.5535 16.1591C27.4077 15.1092 29.4327 14.4255 31.5308 14.1325C32.4092 13.986 33.2875 13.9616 34.1902 13.8883C34.9465 13.8395 35.7028 13.8883 36.4591 13.9127C37.4107 13.9616 38.3622 14.0837 39.3137 14.279C42.3633 14.8894 45.1935 16.33 47.5112 18.4054C48.2431 19.089 48.9995 19.7727 49.707 20.4808C50.5121 21.2865 51.3172 22.1167 52.1224 22.9468C52.9275 23.777 53.9034 24.4607 54.9769 24.9002C55.904 25.2908 56.8799 25.5838 57.8558 25.7547C59.588 26.0233 61.369 25.8036 62.9548 25.0955C64.2723 24.5339 65.4434 23.7282 66.4437 22.7027C67.0536 22.1411 67.5904 21.5063 68.1027 20.847C68.1271 20.7982 68.1759 20.7249 68.2003 20.6517L68.2979 20.7249C68.3467 20.7982 68.3223 20.8714 68.3223 20.9447Z" fill="white"/>
</svg>
