<svg width="45" height="45" viewBox="0 0 45 45" fill="none" xmlns="http://www.w3.org/2000/svg">
<path d="M43.386 9.53287C43.386 5.35853 40.1728 2.11675 36.0352 2.11675C27.0117 2.10195 17.9736 2.10195 8.95011 2.11675C4.82719 2.11675 1.61395 5.37333 1.59928 9.53287C1.58461 18.1776 1.59928 26.8075 1.61395 35.4523C1.61395 36.074 1.68731 36.6809 1.81936 37.273C2.597 40.5592 5.51679 42.8684 8.86208 42.8684C13.4105 42.8832 17.9442 42.8684 22.4927 42.8684C27.0117 42.8684 31.5161 42.8832 36.0352 42.8684C40.1728 42.8536 43.386 39.6118 43.386 35.4523C43.4007 26.8223 43.4007 18.1776 43.386 9.53287ZM32.5579 26.7483C32.4111 27.3848 32.1911 28.0066 31.927 28.5987C31.5601 29.4572 31.076 30.2862 30.5037 31.0263C29.7261 32.0921 28.7137 32.9506 27.5693 33.5871C27.0998 33.8388 26.6009 34.0312 26.0727 34.1793C24.7375 34.5641 23.3583 34.7418 21.9791 34.6825C20.8787 34.6233 19.793 34.4013 18.7512 34.046C17.5774 33.6464 16.477 33.0691 15.494 32.3289C15.2152 32.1217 14.9511 31.8848 14.7017 31.6332C14.2175 31.1595 13.748 30.6858 13.2784 30.1973C12.6475 29.5608 11.9726 28.9835 11.239 28.4654C10.5787 27.9918 9.85979 27.6513 9.08216 27.4293C8.23117 27.2072 7.35083 27.222 6.49983 27.4589C5.50211 27.7253 4.59243 28.2286 3.8148 28.9095C3.31594 29.3388 2.87577 29.8273 2.50896 30.375C2.47962 30.4046 2.46494 30.4342 2.4356 30.4638L2.37691 30.449C2.40626 30.3158 2.42093 30.1677 2.45027 30.0345C2.64101 29.2204 2.91979 28.4358 3.27192 27.6809C3.6534 26.9112 4.12292 26.2006 4.68046 25.5641C5.44343 24.6908 6.38245 23.9802 7.42419 23.477C8.37789 23.0181 9.40495 22.7072 10.4614 22.5592C11.4297 22.426 12.4128 22.3964 13.3811 22.4408C14.2762 22.4852 15.1565 22.6332 16.0075 22.8996C16.6091 23.0773 17.196 23.3141 17.7535 23.5954C18.5898 24.0246 19.3528 24.5575 20.0424 25.1941C20.4385 25.5493 20.82 25.9046 21.2015 26.2746C21.6123 26.6891 22.0085 27.1332 22.4046 27.5625C23.3877 28.6431 24.7228 29.3684 26.1607 29.5904C27.3052 29.7977 28.4936 29.62 29.5354 29.102C30.181 28.8059 30.7532 28.3914 31.2667 27.8881C31.6922 27.5033 32.0884 27.0592 32.4258 26.6003C32.4552 26.5707 32.4845 26.5411 32.5138 26.5263C32.6166 26.6151 32.5725 26.6891 32.5579 26.7483ZM42.5791 14.5954C42.4177 15.2615 42.1976 15.9128 41.9188 16.5345C41.596 17.2895 41.1852 18 40.7157 18.6661C39.9821 19.7171 39.0284 20.6052 37.9426 21.2714C37.297 21.6414 36.6074 21.9375 35.8885 22.1151C35.2722 22.2779 34.6413 22.3964 33.9958 22.4852C33.7317 22.5148 33.4675 22.5296 33.2034 22.5444C32.998 22.5592 32.7779 22.5888 32.5579 22.574C31.4134 22.5592 30.2837 22.3816 29.1979 22.0559C28.0241 21.7006 26.9237 21.1677 25.9113 20.4868C25.4711 20.1908 25.0603 19.8355 24.6788 19.4654C24.1213 18.9177 23.5784 18.3404 23.0062 17.7927C22.4193 17.2154 21.7884 16.6973 21.0988 16.2385C20.5119 15.8388 19.881 15.5427 19.2061 15.3503C18.135 15.0543 16.9905 15.1283 15.9488 15.5279C14.8484 15.9572 13.8653 16.6381 13.0877 17.5411C12.897 17.7631 12.7209 18 12.5448 18.2368L12.4715 18.3552L12.4128 18.3404C12.4421 18.2072 12.4568 18.0592 12.4861 17.926C12.7649 16.6677 13.2638 15.4835 13.968 14.4177C14.7163 13.2927 15.6994 12.375 16.8585 11.6941C17.9736 11.0575 19.1914 10.6431 20.4532 10.4654C20.9814 10.3766 21.5096 10.3618 22.0525 10.3174C22.5073 10.2878 22.9622 10.3174 23.417 10.3322C23.9892 10.3618 24.5615 10.4358 25.1337 10.5543C26.9677 10.9243 28.6697 11.7977 30.0636 13.0559C30.5037 13.4704 30.9586 13.8848 31.3841 14.3141C31.8683 14.8026 32.3525 15.3059 32.8366 15.8092C33.3208 16.3125 33.9077 16.727 34.5533 16.9934C35.1108 17.2302 35.6977 17.4079 36.2846 17.5115C37.3264 17.6743 38.3974 17.5411 39.3512 17.1118C40.1435 16.7714 40.8477 16.2829 41.4493 15.6612C41.8161 15.3207 42.1389 14.9358 42.447 14.5362C42.4617 14.5066 42.491 14.4621 42.5057 14.4177L42.5644 14.4621C42.5937 14.5066 42.5791 14.551 42.5791 14.5954Z" fill="#A4CADA"/>
</svg>
