<svg width="72" height="72" viewBox="0 0 72 72" fill="none" xmlns="http://www.w3.org/2000/svg">
<path d="M33.8803 0.562012H38.0496C38.2262 0.611332 38.4058 0.649077 38.5872 0.675006C43.5469 0.970811 48.3777 2.37105 52.7265 4.77335C62.7239 10.3284 68.8543 18.7358 70.9832 30.0048C71.2337 31.3363 71.3528 32.6922 71.5361 34.039V38.1953C71.4824 38.3959 71.4426 38.6 71.417 38.8061C71.0627 43.7687 69.7859 48.487 67.3515 52.8175C60.7965 64.4651 50.8052 70.808 37.454 71.6295C31.1255 72.0523 24.8109 70.6217 19.2828 67.5129C7.61767 60.9775 1.28263 50.9698 0.464027 37.6243C0.0570553 31.2977 1.48235 24.988 4.56927 19.4504C10.0857 9.41733 18.4856 3.30951 29.7689 1.12698C31.1251 0.861295 32.5088 0.745246 33.8803 0.562012ZM67.1315 36.1095C67.1267 29.951 65.2961 23.9321 61.8711 18.8134C58.446 13.6947 53.5802 9.70595 47.8886 7.35114C42.197 4.99633 35.9349 4.38116 29.8937 5.58337C23.8525 6.78558 18.3033 9.75121 13.9473 14.1055C9.59126 18.4598 6.62397 24.0074 5.42034 30.0472C4.21672 36.087 4.83078 42.348 7.18493 48.039C9.53908 53.73 13.5277 58.5956 18.6467 62.021C23.7657 65.4464 29.7854 67.2778 35.9451 67.2838C40.0405 67.2854 44.0961 66.4802 47.8801 64.9142C51.6642 63.3482 55.1025 61.0521 57.9986 58.157C60.8948 55.262 63.1921 51.8248 64.7591 48.0418C66.3262 44.2588 67.1323 40.2041 67.1315 36.1095V36.1095Z" fill="#75D0EE"/>
<path d="M18.8233 22.6792C19.7207 22.6057 20.4803 22.5476 21.243 22.4802C21.5205 22.4625 21.7967 22.4278 22.0699 22.3762C22.7774 22.217 23.1511 21.7243 23.0654 21.0938C23.0534 20.9475 23.0117 20.8051 22.9427 20.6755C22.8738 20.5458 22.779 20.4317 22.6643 20.3399C22.5495 20.2482 22.4173 20.1809 22.2756 20.1421C22.1338 20.1033 21.9857 20.0939 21.8402 20.1144C20.6334 20.1542 19.4328 20.2889 18.226 20.3103C16.3883 20.347 14.5506 20.3103 12.6118 20.3103C16.6762 14.3789 22.1067 10.4338 29.0532 8.63415C33.5372 7.47764 38.2385 7.45251 42.7347 8.56101C47.2308 9.66952 51.3808 11.8769 54.8119 14.9849C54.7598 15.0216 54.7139 15.0828 54.6679 15.0859C51.3631 15.1287 49.0415 18.5137 50.2819 22.0212C50.8067 23.3561 51.4537 24.6399 52.2146 25.8561C53.2039 27.5669 54.1289 29.2931 54.6281 31.2243C55.2041 33.5819 55.1246 36.052 54.3984 38.3678C53.0385 43.0596 51.6081 47.7332 50.2023 52.4128C50.153 52.5209 50.0924 52.6235 50.0216 52.7189C46.6524 42.6801 43.2833 32.7057 39.9141 22.6731C40.8116 22.5996 41.6171 22.5415 42.4226 22.4649C42.7232 22.4455 43.0215 22.3994 43.3139 22.3272C43.4501 22.3002 43.5796 22.2465 43.695 22.1694C43.8105 22.0923 43.9096 21.9932 43.9866 21.8778C44.0637 21.7624 44.1173 21.633 44.1443 21.4969C44.1713 21.3608 44.1712 21.2207 44.1439 21.0846C44.1383 20.9497 44.1052 20.8173 44.0469 20.6955C43.9885 20.5737 43.906 20.465 43.8043 20.376C43.7026 20.287 43.5839 20.2196 43.4554 20.1778C43.3269 20.1359 43.1912 20.1206 43.0566 20.1328C41.9663 20.1573 40.8789 20.2919 39.7886 20.2858C36.2418 20.2858 32.6919 20.2093 29.1451 20.1634C28.75 20.1634 28.3549 20.1114 27.9629 20.1267C27.6798 20.1215 27.4059 20.2266 27.199 20.4197C26.992 20.6127 26.8684 20.8786 26.8541 21.1611C26.8289 21.299 26.8323 21.4405 26.8641 21.577C26.8959 21.7135 26.9554 21.8419 27.039 21.9544C27.1226 22.067 27.2284 22.1611 27.3499 22.231C27.4715 22.3009 27.6061 22.3451 27.7454 22.3609C28.5907 22.4956 29.4545 22.517 30.2998 22.6669C30.4428 22.6953 30.5779 22.7543 30.6958 22.8399C30.8137 22.9255 30.9117 23.0357 30.9828 23.1628C32.3673 26.8763 33.7282 30.5959 35.0656 34.3217C35.1407 34.5566 35.1407 34.809 35.0656 35.044C33.1238 40.9162 31.1707 46.7844 29.2064 52.6485C29.1512 52.7754 29.0888 52.899 29.0195 53.0188C25.6106 42.8393 22.2353 32.8097 18.8233 22.6792Z" fill="#75D0EE"/>
<path d="M44.9482 62.2032C40.2531 64.067 33.1075 64.4037 27.7021 62.6421C30.5001 54.6939 33.2981 46.7486 36.1484 38.6471L44.9482 62.2032Z" fill="#75D0EE"/>
<path d="M10.0422 24.994L23.3909 60.9233C9.59469 54.5421 3.89963 37.9371 10.0422 24.994Z" fill="#75D0EE"/>
<path d="M49.9785 60.2048C50.4952 58.6737 51.0109 57.1385 51.5256 55.5992C54.0971 48.0522 56.6686 40.5032 59.2401 32.9521C60.2876 29.6941 60.6583 26.2499 60.3288 22.8383C62.6178 25.1717 64.2735 34.8404 63.3899 40.1368C61.9302 48.915 57.4578 55.5716 49.9785 60.2048Z" fill="#75D0EE"/>
</svg>
