<svg width="47" height="46" viewBox="0 0 47 46" fill="none" xmlns="http://www.w3.org/2000/svg">
<path d="M46.0073 21.6576V24.3403C45.9738 24.4673 45.9485 24.5964 45.9316 24.7268C45.743 27.8901 44.8527 30.971 43.3257 33.7442C39.1192 41.2428 32.7233 45.3258 24.1673 45.856C20.1112 46.1275 16.0642 45.2055 12.5217 43.203C5.04682 38.9953 0.987579 32.5549 0.457564 23.9622C0.196778 19.8892 1.11261 15.8272 3.09502 12.2643C6.63126 5.80632 12.0134 1.87394 19.2415 0.467159C20.1102 0.298175 20.9977 0.224245 21.8769 0.105957H24.548C24.6611 0.138648 24.7764 0.163352 24.8929 0.179887C28.071 0.369826 31.1666 1.27048 33.9537 2.81602C40.3622 6.39213 44.2911 11.8038 45.6518 19.0574C45.8138 19.915 45.9021 20.7895 46.0073 21.6576ZM43.1848 23.0116C43.2037 11.9601 34.2965 2.99346 23.2482 2.94487C12.2504 2.89418 3.26748 11.9031 3.24014 22.9926C3.22332 34.0441 12.1305 43.0087 23.1788 43.0594C34.1766 43.1079 43.1679 34.099 43.1848 23.0095V23.0116Z" fill="#75D0EE"/>
<path d="M25.6921 14.5435C26.3525 14.4906 26.9541 14.4526 27.5577 14.3871C28.1235 14.3259 28.3843 14.0809 28.399 13.6457C28.4137 13.2106 28.1235 12.879 27.6124 12.8938C26.9141 12.9128 26.22 13.0057 25.5239 13.0015C23.3008 13.0015 21.0776 12.9529 18.8545 12.9233C18.6021 12.9233 18.3497 12.8874 18.0974 12.8916C18.0043 12.8848 17.9108 12.8965 17.8223 12.9262C17.7337 12.9559 17.652 13.003 17.5817 13.0647C17.5115 13.1264 17.4542 13.2015 17.413 13.2857C17.3719 13.3698 17.3479 13.4613 17.3423 13.5549C17.3258 13.6473 17.3289 13.7421 17.3514 13.8333C17.3739 13.9244 17.4153 14.0097 17.4729 14.0836C17.5304 14.1576 17.6029 14.2185 17.6855 14.2624C17.7681 14.3064 17.859 14.3323 17.9522 14.3386C18.478 14.4209 19.0144 14.4315 19.5402 14.5202C19.6321 14.5368 19.7192 14.5736 19.7952 14.628C19.8712 14.6824 19.9342 14.7531 19.9797 14.8349C20.8659 17.2176 21.7352 19.6066 22.5878 22.0019C22.636 22.1531 22.636 22.3155 22.5878 22.4667C21.3469 26.2378 20.0989 30.0068 18.844 33.7737C18.8086 33.8576 18.7686 33.9394 18.7241 34.0188C16.5389 27.4939 14.383 21.0514 12.2041 14.5498L13.6574 14.4209C13.8498 14.4111 14.0415 14.3906 14.2316 14.3597C14.7175 14.2625 14.9698 13.9499 14.9152 13.5296C14.8605 13.1092 14.5765 12.8769 14.0928 12.8959C13.3356 12.9254 12.5827 13.0099 11.8276 13.0247C10.6561 13.0458 9.48461 13.0247 8.23529 13.0247C11.041 8.92688 14.8079 6.26539 19.6495 5.32542C25.5007 4.18901 30.702 5.69507 35.2114 9.61759C34.2523 9.69997 33.4362 10.0401 32.8431 10.792C31.9366 11.958 31.8925 13.2423 32.4624 14.5413C32.8466 15.3624 33.2785 16.1601 33.7559 16.9303C34.7697 18.654 35.5121 20.4748 35.2997 22.511C35.1476 23.6916 34.895 24.8569 34.5446 25.9942C33.838 28.4824 33.0724 30.9517 32.3194 33.4294C32.2816 33.5541 32.2353 33.6766 32.1617 33.8962C29.9932 27.3946 27.8479 20.988 25.6921 14.5435Z" fill="#75D0EE"/>
<path d="M29.1435 40.0219C25.5942 41.2658 21.7462 41.3625 18.1394 40.2986C19.9293 35.0707 21.7149 29.8745 23.5258 24.5789C25.4166 29.7752 27.2737 34.8806 29.1435 40.0219Z" fill="#75D0EE"/>
<path d="M15.3631 39.2044C6.1615 34.6461 3.06344 23.8734 6.82402 15.7031C9.66969 23.5397 12.5006 31.3256 15.3631 39.2044Z" fill="#75D0EE"/>
<path d="M32.2606 38.556C32.8074 36.9675 33.3122 35.4657 33.838 33.9638C35.3271 29.6505 36.8372 25.3457 38.2989 21.0218C39.0096 18.9351 39.2474 16.7153 38.9951 14.5244C43.1679 21.6196 41.5505 33.064 32.2606 38.556Z" fill="#75D0EE"/>
</svg>
