<svg width="25" height="25" viewBox="0 0 25 25" fill="none" xmlns="http://www.w3.org/2000/svg">
<path d="M13.1109 0C13.678 0.110002 14.2645 0.179295 14.8105 0.338669C18.079 1.28192 20.2545 4.18009 19.9883 7.18654C19.7056 10.3913 17.1533 12.9205 13.7011 13.4229C12.692 13.5702 11.6601 13.5301 10.6688 13.305C9.67755 13.0799 8.74783 12.6745 7.9368 12.1138C7.12576 11.5531 6.45054 10.8489 5.95263 10.0445C5.45472 9.24003 5.14463 8.35236 5.04141 7.43599C4.62419 3.75567 7.60529 0.434813 11.6746 0.043308C11.7469 0.0325953 11.8185 0.0181353 11.889 0H13.1109Z" fill="white"/>
<path d="M12.5024 24.9965H1.00385C0.302075 24.9965 -0.00939772 24.7107 0.000215637 24.0775C0.0703931 19.3266 3.9638 15.2626 9.18674 14.4986C9.66229 14.4314 10.1426 14.3952 10.6239 14.3904C11.8269 14.3748 13.0302 14.373 14.2338 14.3852C16.5983 14.4132 18.8886 15.133 20.7594 16.4361C22.6302 17.7393 23.9801 19.5551 24.6056 21.6098C24.8522 22.4226 24.9846 23.2601 24.9997 24.1026C25.0103 24.7029 24.6883 25 24.0269 25L12.5024 24.9965Z" fill="white"/>
</svg>
