<svg width="27" height="23" viewBox="0 0 27 23" fill="none" xmlns="http://www.w3.org/2000/svg">
<path d="M0.114746 4.45715C0.199282 3.89719 0.274825 3.3364 0.37555 2.77894C0.406719 2.66139 0.483116 2.55833 0.590488 2.48899C1.74462 1.74404 2.90265 1.00518 4.06457 0.272421C4.83889 -0.216088 5.72562 -0.0349742 6.19956 0.714405C6.86446 1.76675 7.52217 2.81909 8.17268 3.87143C8.59626 4.55933 8.39751 5.29708 7.67265 5.7183C7.00985 6.10545 6.33716 6.47931 5.66267 6.84901C5.50798 6.93209 5.45942 7.00935 5.50619 7.18133C5.87311 8.54051 6.48105 9.80914 7.19241 11.0387C8.11062 12.6247 9.17093 14.121 10.5199 15.4311C11.0154 15.9138 11.019 15.9097 11.6396 15.5973C12.1846 15.3206 12.7277 15.0415 13.2763 14.7665C14.074 14.3694 14.8609 14.5713 15.3178 15.2949C15.9719 16.3306 16.6212 17.3694 17.2657 18.4112C17.7397 19.1755 17.4735 19.9798 16.6173 20.3611C15.3673 20.9186 14.11 21.4611 12.8617 22.0227C12.783 22.0599 12.6966 22.0813 12.6083 22.0856C12.52 22.0899 12.4317 22.077 12.3491 22.0476C11.2151 21.7095 10.2303 21.1296 9.31482 20.4417C7.46941 19.0551 5.98193 17.3735 4.66982 15.5549C2.94042 13.1664 1.56805 10.6167 0.730782 7.83849C0.394641 6.73507 0.188104 5.60142 0.114746 4.45715Z" fill="white"/>
<path d="M26.0019 4.35913C26.0145 4.50452 26.0316 4.60837 26.0316 4.71471C26.0316 8.32646 26.0316 11.9377 26.0316 15.5483C26.0316 16.2553 25.608 16.6483 24.8391 16.6491C22.5198 16.6491 20.1995 16.6491 17.8792 16.6541C17.8091 16.6591 17.739 16.6438 17.6787 16.6103C17.6184 16.5768 17.5709 16.5268 17.5429 16.4672C17.1832 15.879 16.8189 15.2938 16.4502 14.7117C15.6193 13.4032 14.0679 13.0052 12.6236 13.7289C12.1802 13.9515 11.7387 14.1775 11.2548 14.4226C9.36005 12.4043 7.89924 10.0707 6.95068 7.5469L8.81858 6.47268L13.219 9.25917L15.2056 10.5178C15.6453 10.7961 15.8243 10.7986 16.2587 10.5236L25.7016 4.54191C25.787 4.48873 25.8751 4.43556 26.0019 4.35913Z" fill="white"/>
<path d="M24.8578 3.6239L15.7369 9.40126L9.51719 5.46578C9.7503 4.87059 9.74263 4.21761 9.49561 3.62722L24.8578 3.6239Z" fill="white"/>
</svg>
