<svg width="25" height="22" viewBox="0 0 25 22" fill="none" xmlns="http://www.w3.org/2000/svg">
<path d="M25 3.86975V20.0419C24.9854 20.0719 24.9735 20.1032 24.9645 20.1354C24.7515 21.2693 23.8996 21.9966 22.7404 21.9975C15.9141 22.0025 9.08808 22 2.26237 21.99C1.91382 21.9875 1.56984 21.9104 1.25355 21.7638C0.377372 21.3497 0 20.6046 0 19.6511V3.93706C0.053015 3.9908 0.0910197 4.05752 0.110223 4.13056C0.935959 6.60655 1.76201 9.08129 2.58837 11.5548C2.95266 12.6476 3.72235 13.2019 4.87689 13.2028C6.10553 13.2028 7.33386 13.2028 8.56187 13.2028H8.8421C8.8421 13.4412 8.8421 13.6516 8.8421 13.8619C8.84771 14.3704 9.13914 14.6677 9.64635 14.6677C11.55 14.6677 13.4537 14.6677 15.3574 14.6677C15.8674 14.6677 16.1598 14.3723 16.1654 13.8656C16.1654 13.6487 16.1654 13.4328 16.1654 13.2028H16.4643C17.6767 13.2028 18.8889 13.2028 20.1007 13.2028C21.2917 13.2028 22.0473 12.6597 22.4228 11.5352C23.2504 9.05231 24.0784 6.56978 24.9066 4.08756C24.9335 4.01322 24.9647 3.9405 25 3.86975V3.86975Z" fill="white"/>
<path d="M16.1617 11.7365C16.1617 11.4859 16.1617 11.2691 16.1617 11.0485C16.1533 10.5811 15.86 10.2735 15.4013 10.2726C13.464 10.2688 11.5273 10.2688 9.59127 10.2726C9.14478 10.2726 8.8496 10.582 8.844 11.0316C8.83839 11.2569 8.844 11.4831 8.844 11.7253C8.76086 11.7299 8.69828 11.7355 8.6357 11.7355C7.37343 11.7355 6.11209 11.7355 4.85169 11.7355C4.37437 11.7355 4.14552 11.5766 3.99607 11.1289C3.10059 8.46154 2.20915 5.79361 1.32177 3.12505C1.30402 3.0727 1.29281 3.01849 1.27319 2.94651H7.39336C7.39336 2.61932 7.3616 2.30243 7.39896 1.993C7.53907 0.832912 8.3947 0.028979 9.56231 0.0158917C11.5233 -0.00529723 13.4849 -0.00529723 15.4471 0.0158917C16.6922 0.0317834 17.5955 0.971263 17.6273 2.21829C17.6338 2.44638 17.6273 2.67354 17.6273 2.92594H23.7418C23.7044 3.03999 23.6792 3.12038 23.6531 3.20077C22.7813 5.81823 21.9113 8.43288 21.0432 11.0447C20.8639 11.5841 20.6574 11.7355 20.0989 11.7355H16.1617V11.7365ZM8.8412 2.92407H16.1626C16.1626 2.70439 16.1626 2.50154 16.1626 2.29962C16.1626 1.76304 15.8693 1.47699 15.3275 1.47512C14.4822 1.47512 13.6368 1.47512 12.7915 1.47512C11.735 1.47512 10.6786 1.47512 9.62116 1.47512C9.18494 1.47512 8.87389 1.74996 8.84493 2.1566C8.82812 2.40712 8.8412 2.65859 8.8412 2.92407Z" fill="white"/>
<path d="M10.3236 11.7408H14.6783V13.1861H10.3236V11.7408Z" fill="white"/>
</svg>
