<svg width="50" height="54" viewBox="0 0 50 54" fill="none" xmlns="http://www.w3.org/2000/svg">
<path d="M15.2659 0V11.7312H1.71758V21.1136H15.2659V21.3321C15.3597 19.7738 15.6115 18.2291 16.0177 16.7218C16.5247 14.7994 17.5008 13.0329 18.8584 11.5805C20.1929 10.1646 21.9716 9.07866 24.1947 8.32265C24.9633 8.06438 25.748 7.85709 26.5438 7.70211V1.82884L15.2659 0Z" fill="#75D0EE"/>
<path d="M15.0562 48.4763V38.3642C14.8988 39.9592 14.5055 41.2899 13.8871 42.3452C13.0523 43.7611 11.377 44.4676 8.86106 44.4647C7.60573 44.4607 6.35317 44.3467 5.11778 44.1238C3.91608 43.9216 2.7365 43.6048 1.59521 43.1777L0 51.9548C1.47496 52.5492 2.99296 53.0305 4.54088 53.3948C6.20165 53.7968 8.24119 53.9985 10.6595 54C13.7421 54 16.2915 53.5834 18.3078 52.7502C19.9435 52.1068 21.4215 51.1186 22.6411 49.8529C22.346 49.8114 22.062 49.7677 21.7844 49.7196C18.9116 49.2433 16.6688 48.8288 15.0562 48.4763Z" fill="#75D0EE"/>
<path d="M48.6036 30.7757C47.6986 29.1957 46.4105 27.8688 44.8582 26.917C43.1991 25.922 41.3816 25.2191 39.4847 24.839C37.4204 24.4048 35.3161 24.1895 33.2066 24.1966C31.9054 24.1877 30.6047 24.2505 29.3103 24.3846C28.5608 24.4631 27.816 24.582 27.0792 24.7407C26.8913 24.7822 26.7099 24.8303 26.5438 24.8784V23.8165C26.5272 22.8431 26.7094 21.8765 27.0792 20.976C27.36 20.3081 27.7707 19.7028 28.2877 19.1952C29.4531 18.0299 31.4701 17.4472 34.3385 17.4472C36.24 17.4473 38.1388 17.5861 40.0201 17.8623C41.6705 18.0897 43.2937 18.4835 44.8647 19.0379L46.3026 9.95703C45.647 9.75819 44.8254 9.53969 43.842 9.31245C42.8587 9.08521 41.7879 8.87546 40.6276 8.70721C39.4672 8.53897 38.2457 8.38165 36.9586 8.25273C35.6715 8.12382 34.3735 8.06919 33.0602 8.06919C31.054 8.05471 29.0512 8.23325 27.0792 8.60233C26.2842 8.75296 25.5001 8.95662 24.7323 9.21194C22.5107 9.97087 20.7319 11.0568 19.396 12.4698C18.0383 13.9222 17.0623 15.6887 16.5552 17.6111C16.1484 19.1183 15.8958 20.6631 15.8013 22.2214C15.7511 22.9075 15.727 23.6176 15.727 24.3474V47.8034C17.3412 48.1559 19.5854 48.571 22.4597 49.0488C22.7372 49.0969 23.0213 49.1384 23.3163 49.1821C26.494 49.603 29.6975 49.7994 32.9028 49.7698C35.2513 49.7918 37.5955 49.5632 39.8955 49.0881C41.8266 48.6999 43.6645 47.9424 45.3083 46.8572C46.8071 45.8416 48.008 44.4448 48.7872 42.8106C49.5986 41.1442 50.0029 39.1005 50 36.6795C50.0029 34.3591 49.5374 32.3911 48.6036 30.7757ZM37.022 40.0444C35.839 40.7261 34.2118 41.067 32.1402 41.067C31.0323 41.067 29.9725 41.0452 28.9651 40.9927C28.091 40.949 27.3502 40.8878 26.7799 40.8026L26.5417 40.7655V32.2156C26.6946 32.1828 26.8738 32.15 27.077 32.1151C27.4791 32.0495 27.9817 31.984 28.587 31.9119C29.4156 31.817 30.2486 31.7667 31.0825 31.7611C32.0814 31.7583 33.0793 31.8218 34.0697 31.9512C34.9243 32.0551 35.7562 32.2979 36.5325 32.6701C37.2049 32.9956 37.7799 33.4922 38.1998 34.11C38.6219 34.7883 38.8312 35.5775 38.8007 36.3758C38.8022 38.1413 38.2107 39.3642 37.0263 40.0444H37.022Z" fill="#D6E869"/>
</svg>
