<svg width="25" height="22" viewBox="0 0 25 22" fill="none" xmlns="http://www.w3.org/2000/svg">
<path d="M0 16.1578V1.3108C0.403613 0.270917 0.821793 0.00178064 2.03263 0.00178064C9.04744 0.00178064 16.0622 0.00178064 23.0771 0.00178064C23.2962 -0.00591994 23.5156 0.0113768 23.73 0.0532676C24.5433 0.243613 25 0.822452 25 1.63766C25 6.34274 25 11.0473 25 15.7513C25 16.8294 24.3239 17.4457 23.1388 17.4457H15.0219C15.0459 17.6392 15.0562 17.8022 15.0879 17.9614C15.3064 19.0855 15.9114 19.7704 17.3022 19.7221C17.5785 19.7086 17.8556 19.7183 18.13 19.7509C18.3212 19.7795 18.5023 19.8486 18.6587 19.9528C18.8151 20.057 18.9423 20.1932 19.03 20.3505C19.1177 20.5078 19.1635 20.6817 19.1636 20.8581C19.1637 21.0345 19.1182 21.2084 19.0306 21.3658C18.7599 21.8424 18.3031 22.0015 17.7358 22C14.2447 21.9953 10.7536 21.9953 7.26246 22C7.16477 22 7.06708 21.9945 6.97025 21.9867C6.66676 21.9645 6.38315 21.8405 6.17445 21.6387C5.96575 21.4369 5.84685 21.1717 5.84082 20.8946C5.82689 20.6178 5.92769 20.3465 6.12323 20.1342C6.31877 19.9219 6.59479 19.7843 6.89655 19.7486C7.23657 19.7189 7.57836 19.7096 7.91972 19.7205C9.35422 19.7353 9.96607 18.6174 9.93607 17.4457H9.64729C7.03452 17.4457 4.42003 17.4512 1.80983 17.4379C1.50312 17.4328 1.20033 17.3743 0.917769 17.2655C0.389045 17.0666 0.143964 16.6391 0 16.1578ZM24.1654 14.4361H0.850072C0.84283 14.4551 0.837664 14.4747 0.834647 14.4946C0.834647 14.9106 0.834647 15.3254 0.834647 15.7389C0.834647 16.4222 1.13029 16.6906 1.88438 16.6906H23.1173C23.203 16.6906 23.2801 16.6906 23.3616 16.6906C23.7952 16.668 24.1439 16.3785 24.1594 15.9885C24.1799 15.4744 24.1645 14.9634 24.1645 14.4361H24.1654ZM12.0904 2.28983V13.6482H12.9208V2.29607H22.5089V13.6419H23.3367V2.0714C23.3367 1.63532 23.2107 1.52533 22.7274 1.52533H2.27086C1.78926 1.52533 1.66415 1.64 1.66415 2.07686C1.66415 5.85466 1.66415 9.63271 1.66415 13.411V13.6505H2.50137V2.28983H12.0904ZM12.488 21.2402H17.6878C17.7854 21.2427 17.8831 21.2385 17.9801 21.2277C18.0348 21.2217 18.0875 21.2052 18.1348 21.1794C18.1821 21.1535 18.2228 21.1189 18.2543 21.0777C18.2859 21.0366 18.3075 20.9898 18.3179 20.9405C18.3282 20.8912 18.327 20.8404 18.3143 20.7916C18.2748 20.5896 18.106 20.4796 17.8001 20.4796C14.269 20.4796 10.7376 20.4796 7.2059 20.4796C6.86313 20.4796 6.68403 20.6176 6.68061 20.8556C6.67718 21.0935 6.85799 21.2308 7.19476 21.237C7.25989 21.237 7.32502 21.237 7.39014 21.237L12.488 21.2402ZM19.148 11.3812H21.0513C21.4617 11.3812 21.6708 11.2462 21.6623 10.9911C21.6537 10.736 21.4532 10.6214 21.0538 10.6206H17.2705C17.173 10.619 17.0757 10.6268 16.98 10.644C16.8934 10.6644 16.8167 10.7104 16.7619 10.7748C16.7072 10.8392 16.6775 10.9183 16.6775 10.9997C16.6775 11.0811 16.7072 11.1603 16.7619 11.2247C16.8167 11.2891 16.8934 11.3351 16.98 11.3554C17.0751 11.3741 17.1724 11.3822 17.2697 11.3796C17.8986 11.382 18.5216 11.3812 19.148 11.3812V11.3812ZM19.1626 5.31118H20.3623C20.6545 5.31118 20.9484 5.31742 21.2407 5.31118C21.2961 5.31243 21.3514 5.3036 21.4031 5.28522C21.4548 5.26684 21.5019 5.23928 21.5418 5.20414C21.5817 5.16899 21.6135 5.12697 21.6353 5.08053C21.6572 5.03408 21.6687 4.98414 21.6691 4.93361C21.6691 4.72844 21.4926 4.57476 21.2407 4.55916C21.1918 4.55916 21.143 4.55916 21.0941 4.55916H17.2551C17.1819 4.55681 17.1086 4.55916 17.0357 4.56618C16.9378 4.57667 16.8474 4.61893 16.781 4.68522C16.7146 4.7515 16.6766 4.83737 16.6741 4.92706C16.6716 5.01675 16.7047 5.10425 16.7674 5.17352C16.83 5.24278 16.918 5.28917 17.0152 5.30416C17.0957 5.31471 17.1772 5.31863 17.2585 5.31586L19.1626 5.31118ZM16.2491 6.82537C16.9166 6.82537 17.5833 6.82537 18.2508 6.82537C18.4445 6.82537 18.6048 6.77622 18.6964 6.61084C18.8481 6.33936 18.6227 6.06476 18.2337 6.06476C16.9157 6.06164 15.5978 6.06164 14.2798 6.06476C13.9439 6.06476 13.758 6.20284 13.7563 6.44156C13.7545 6.68027 13.9379 6.82069 14.2704 6.82147C14.9345 6.82693 15.5935 6.82537 16.2525 6.82537H16.2491ZM16.2491 3.03951C15.5824 3.03951 14.9148 3.03951 14.2481 3.03951C13.9319 3.03951 13.7545 3.18149 13.7563 3.41786C13.758 3.65424 13.9439 3.79544 14.2593 3.79544C15.5852 3.79856 16.9112 3.79856 18.2371 3.79544C18.5482 3.79544 18.741 3.64722 18.7513 3.42255C18.7616 3.19787 18.561 3.04107 18.2371 3.03951C17.5704 3.03795 16.9115 3.03951 16.2525 3.03951H16.2491ZM19.172 8.34423H20.1489C20.5234 8.34423 20.8979 8.34423 21.2715 8.33643C21.4995 8.33019 21.6237 8.19679 21.6537 7.99787C21.6655 7.90829 21.6393 7.81799 21.5803 7.74547C21.5214 7.67295 21.4342 7.6237 21.3366 7.60781C21.2412 7.58945 21.1437 7.5816 21.0461 7.58441C20.1275 7.58441 19.2083 7.58441 18.2885 7.58441C17.9141 7.58441 17.5396 7.58441 17.1651 7.58441C16.9372 7.58441 16.7461 7.65072 16.6861 7.88163C16.6193 8.14219 16.8095 8.33799 17.1463 8.34111C17.8249 8.34579 18.4985 8.34189 19.1755 8.34267L19.172 8.34423ZM16.2482 9.86154C16.9235 9.86154 17.5987 9.86154 18.2731 9.86154C18.5585 9.86154 18.7307 9.718 18.7427 9.50347C18.7547 9.28894 18.5713 9.12746 18.2843 9.10718C18.2354 9.10328 18.1866 9.10718 18.1377 9.10718C16.8769 9.10718 15.6161 9.10718 14.3552 9.10718C14.2496 9.10417 14.144 9.11467 14.0416 9.13838C13.9565 9.16264 13.8827 9.21186 13.8316 9.27835C13.7804 9.34485 13.7549 9.42488 13.7591 9.50596C13.7632 9.58703 13.7966 9.66459 13.8543 9.72652C13.9119 9.78844 13.9904 9.83126 14.0776 9.84828C14.1656 9.86198 14.2549 9.86747 14.3441 9.86466L16.2482 9.86154ZM19.184 12.1426C18.5499 12.1426 17.9149 12.1426 17.2808 12.1426C17.1914 12.1403 17.102 12.1448 17.0134 12.1558C16.9187 12.1645 16.8311 12.2057 16.7686 12.2711C16.706 12.3364 16.6731 12.421 16.6767 12.5077C16.6675 12.5901 16.6921 12.6727 16.7457 12.7396C16.7993 12.8066 16.8782 12.8531 16.9672 12.8704C17.07 12.8917 17.1753 12.9014 17.2808 12.8993C18.3954 12.8993 19.5094 12.8993 20.6228 12.8993H21.0864C21.1353 12.9007 21.1842 12.8994 21.2329 12.8954C21.49 12.8688 21.6614 12.7198 21.6614 12.517C21.6614 12.3142 21.49 12.1465 21.2098 12.1433C20.5354 12.1426 19.8601 12.1426 19.184 12.1426ZM10.2523 11.3788C9.94036 11.6612 9.65243 11.9179 9.36622 12.1831C9.28541 12.2544 9.22432 12.3421 9.18798 12.439C9.16208 12.5145 9.16668 12.5959 9.20094 12.6686C9.23519 12.7413 9.29685 12.8004 9.37479 12.8353C9.57102 12.9391 9.75355 12.8938 9.90694 12.7573C10.2891 12.4151 10.6685 12.07 11.0449 11.7221C11.3157 11.4725 11.3166 11.2868 11.0449 11.0364C10.685 10.7051 10.3231 10.3756 9.95921 10.048C9.72441 9.83658 9.47847 9.81395 9.29509 9.97466C9.11171 10.1354 9.13485 10.3647 9.3645 10.5777C9.65072 10.8406 9.94122 11.0988 10.2531 11.3796L10.2523 11.3788ZM4.31891 11.3843C4.65569 11.084 4.95904 10.8164 5.25639 10.5434C5.46291 10.3499 5.46548 10.1307 5.28381 9.97231C5.11243 9.82565 4.87078 9.83268 4.67368 10.0082C4.27378 10.365 3.87731 10.7259 3.48427 11.091C3.28289 11.2798 3.2786 11.474 3.47655 11.6605C3.87845 12.038 4.28549 12.4109 4.70453 12.7713C4.75139 12.8096 4.80661 12.8384 4.86657 12.8559C4.92653 12.8734 4.98988 12.8791 5.05244 12.8727C5.1861 12.8344 5.30035 12.7539 5.37465 12.6457C5.47919 12.4944 5.39179 12.3415 5.26496 12.226C4.95904 11.9483 4.64969 11.6745 4.31977 11.3851L4.31891 11.3843ZM7.91287 4.75341C7.91287 4.33137 7.91287 3.91011 7.91287 3.48807C7.91287 3.20568 7.75005 3.03873 7.49469 3.04107C7.23932 3.04341 7.08508 3.2088 7.08336 3.47559C7.07879 4.31915 7.07879 5.16244 7.08336 6.00548C7.08336 6.27383 7.24875 6.43843 7.49297 6.44234C7.7372 6.44624 7.9103 6.27617 7.91287 5.99611C7.9163 5.58266 7.91373 5.16842 7.91373 4.75419L7.91287 4.75341ZM6.76459 12.8962C6.82543 12.8478 6.97539 12.7799 7.03795 12.6707C7.46041 11.9312 7.86574 11.1838 8.27192 10.4373C8.32347 10.3603 8.3421 10.2688 8.32423 10.1802C8.30637 10.0915 8.25328 10.012 8.17509 9.95671C7.95571 9.78899 7.6695 9.86076 7.51697 10.1299C7.29331 10.5199 7.07993 10.9201 6.86227 11.3164C6.67718 11.6527 6.48351 11.985 6.31041 12.3306C6.16474 12.6106 6.35583 12.8946 6.76459 12.8962ZM14.806 10.6253C14.5943 10.6253 14.3827 10.6143 14.1719 10.6253C13.9071 10.6424 13.7554 10.793 13.7605 11.0083C13.7596 11.0569 13.7695 11.1051 13.7898 11.1501C13.8101 11.195 13.8403 11.2357 13.8785 11.2696C13.9167 11.3035 13.9621 11.33 14.012 11.3473C14.0619 11.3646 14.1151 11.3724 14.1684 11.3703C14.5823 11.3843 14.9979 11.3843 15.4127 11.3703C15.468 11.3724 15.5233 11.364 15.5748 11.3455C15.6264 11.327 15.6731 11.2989 15.7119 11.2629C15.7508 11.227 15.7809 11.184 15.8004 11.1368C15.8198 11.0896 15.8282 11.0391 15.8249 10.9888C15.8197 10.7844 15.6706 10.6424 15.4161 10.6253C15.2139 10.6143 15.0091 10.6253 14.806 10.6253ZM14.7906 5.30962H15.3527C15.3687 5.31041 15.3847 5.31041 15.4007 5.30962C15.6578 5.2909 15.8292 5.14346 15.8292 4.93361C15.8305 4.88323 15.8205 4.83314 15.7996 4.78645C15.7788 4.73975 15.7477 4.69746 15.7081 4.66219C15.6686 4.62693 15.6215 4.59944 15.5698 4.58145C15.5181 4.56346 15.4629 4.55534 15.4076 4.5576C15.0008 4.54876 14.594 4.54876 14.1873 4.5576C14.1317 4.55423 14.0759 4.56144 14.0235 4.57876C13.9711 4.59608 13.9232 4.62313 13.8829 4.6582C13.8426 4.69327 13.8108 4.73559 13.7894 4.78247C13.768 4.82934 13.7576 4.87975 13.7588 4.93049C13.7588 5.14424 13.9199 5.29636 14.1796 5.30806C14.3852 5.31742 14.5875 5.30962 14.7906 5.30962V5.30962ZM20.6408 3.04107C20.4291 3.04107 20.2166 3.03483 20.0058 3.04107C19.8975 3.03979 19.7929 3.07723 19.7146 3.14534C19.6363 3.21346 19.5904 3.30682 19.5868 3.40538C19.5825 3.49936 19.6186 3.59116 19.6874 3.66134C19.7561 3.73153 19.8522 3.77458 19.9553 3.78139C20.4017 3.80012 20.8499 3.80012 21.2955 3.78139C21.3991 3.77556 21.496 3.73268 21.565 3.6621C21.634 3.59152 21.6696 3.49896 21.664 3.4046C21.6606 3.30706 21.6156 3.21457 21.5384 3.14681C21.4613 3.07906 21.3581 3.0414 21.2509 3.04185C21.0461 3.03405 20.8422 3.04107 20.6408 3.04107ZM20.6408 6.82459C20.8439 6.82459 21.0479 6.83161 21.2509 6.82459C21.3581 6.82569 21.4615 6.78875 21.5392 6.72162C21.617 6.65448 21.663 6.56243 21.6674 6.46496C21.6702 6.41642 21.6623 6.36786 21.6443 6.32211C21.6262 6.27637 21.5984 6.23434 21.5623 6.19848C21.5263 6.16262 21.4828 6.13364 21.4343 6.11323C21.3859 6.09282 21.3334 6.08138 21.2801 6.07959C20.8516 6.06398 20.418 6.06476 19.9878 6.07959C19.8805 6.08364 19.7791 6.12571 19.7053 6.19682C19.6315 6.26793 19.5911 6.36247 19.5928 6.46028C19.5988 6.66623 19.7745 6.81835 20.0307 6.82693C20.2278 6.83005 20.4309 6.82459 20.6348 6.82459H20.6408ZM14.8017 8.33955C15.0057 8.33955 15.2087 8.34657 15.4118 8.33955C15.6689 8.32941 15.8197 8.19133 15.83 7.98617C15.8403 7.781 15.7101 7.61327 15.477 7.60313C15.0225 7.58129 14.5672 7.58129 14.1127 7.60313C13.8805 7.61483 13.7545 7.79036 13.77 7.99319C13.7727 8.0872 13.8162 8.17639 13.8911 8.24119C13.966 8.30598 14.066 8.34108 14.1693 8.33877C14.3724 8.34735 14.584 8.33955 14.7957 8.33955H14.8017ZM20.6151 9.85608V9.85998H21.2012C21.2256 9.85959 21.2499 9.85802 21.2741 9.8553C21.3767 9.85131 21.474 9.81252 21.5468 9.74654C21.6195 9.68057 21.6626 9.59219 21.6674 9.49879C21.6711 9.45221 21.6647 9.40543 21.6484 9.36115C21.632 9.31687 21.6062 9.27598 21.5724 9.24086C21.5386 9.20573 21.4975 9.17707 21.4514 9.15653C21.4054 9.13599 21.3553 9.12399 21.3041 9.12122C20.8585 9.1025 20.4103 9.10172 19.9647 9.12122C19.861 9.12488 19.763 9.16572 19.6922 9.23484C19.6214 9.30396 19.5835 9.39575 19.5868 9.49021C19.5893 9.58794 19.6341 9.68083 19.7114 9.74863C19.7888 9.81642 19.8925 9.85365 19.9998 9.85218C20.2021 9.86466 20.406 9.85608 20.6091 9.85608H20.6151ZM14.7923 12.8985C14.9954 12.8985 15.1993 12.9086 15.4016 12.8985C15.6792 12.8813 15.8403 12.7245 15.83 12.5084C15.8197 12.2924 15.6586 12.1574 15.3904 12.1512C14.9997 12.1434 14.6092 12.1434 14.219 12.1512C13.9328 12.1566 13.77 12.297 13.7665 12.5194C13.7631 12.7417 13.9259 12.8876 14.2061 12.9032C14.3947 12.9079 14.5909 12.8993 14.7863 12.8993L14.7923 12.8985ZM7.91715 7.97914C7.91715 7.85355 7.91715 7.72717 7.91715 7.60157C7.91843 7.58677 7.91843 7.57191 7.91715 7.55711C7.91105 7.46746 7.86856 7.38307 7.79792 7.32036C7.72729 7.25764 7.63356 7.22107 7.53496 7.21776C7.30702 7.20918 7.13649 7.31293 7.11593 7.5103C7.08807 7.81219 7.08807 8.11567 7.11593 8.41756C7.13 8.507 7.181 8.58818 7.25855 8.64456C7.33609 8.70095 7.43433 8.72829 7.53325 8.72102C7.63601 8.71521 7.73266 8.6746 7.80418 8.60718C7.87571 8.53976 7.91692 8.45041 7.91972 8.35672C7.91887 8.2319 7.91115 8.10552 7.91115 7.97992L7.91715 7.97914Z" fill="white"/>
<path d="M12.4999 15.9338C12.1186 15.9338 11.7364 15.9338 11.355 15.9338C11.0303 15.9338 10.8366 15.7778 10.8409 15.5437C10.8452 15.3097 11.0311 15.1763 11.3456 15.1755C12.1169 15.1755 12.8881 15.1755 13.6593 15.1755C13.9712 15.1755 14.1572 15.3183 14.1606 15.5476C14.1641 15.777 13.9747 15.9276 13.6679 15.9307C13.278 15.9369 12.8881 15.9338 12.4999 15.9338Z" fill="white"/>
</svg>
