<svg width="19" height="23" viewBox="0 0 19 23" fill="none" xmlns="http://www.w3.org/2000/svg">
<path d="M1.4373 0H9.70135C9.55359 0.296676 9.48482 0.620041 9.50046 0.944591C9.50685 2.67266 9.50046 4.40073 9.50046 6.1288C9.50046 7.54855 10.5698 8.50786 12.1486 8.50868C13.8142 8.50868 15.4798 8.51522 17.1454 8.50459C17.7627 8.50459 18.3937 8.60109 19 8.33202V8.56102C19 12.7265 19 16.8914 19 21.0558C19 22.0372 18.2695 22.6914 17.1673 22.6914C12.0536 22.6914 6.93997 22.6914 1.82631 22.6914C1.70418 22.6944 1.58199 22.6881 1.46105 22.6726C0.580766 22.5377 0 21.917 0 21.1024C0 14.5969 0 8.09077 0 1.58413C0 1.56205 0 1.53997 0 1.51789C0.00653904 1.18982 0.129414 0.87212 0.350857 0.610724C0.572301 0.349327 0.880835 0.157784 1.23184 0.0637905C1.30124 0.0441627 1.36882 0.0212635 1.4373 0ZM8.71149 13.8278L8.64848 13.8532C8.4896 13.7035 8.33253 13.5522 8.17182 13.405C8.0111 13.2578 7.83943 13.0967 7.66228 12.9536C7.51335 12.8273 7.31493 12.7586 7.10989 12.7622C6.90485 12.7659 6.70966 12.8417 6.56649 12.9732C6.49326 13.0361 6.43467 13.1114 6.39412 13.1947C6.35358 13.278 6.33187 13.3677 6.33025 13.4586C6.32864 13.5495 6.34715 13.6397 6.38473 13.7242C6.4223 13.8086 6.47818 13.8855 6.54914 13.9505C7.34724 14.6759 8.15173 15.3964 8.96717 16.1047C9.30595 16.3991 9.73605 16.3835 10.0712 16.0875C10.8565 15.3923 11.6372 14.6931 12.4134 13.9898C12.7467 13.6888 12.7504 13.2619 12.4408 12.9789C12.1313 12.696 11.64 12.6919 11.2939 12.9936C11.0108 13.239 10.7341 13.4942 10.4538 13.7436C10.4127 13.7796 10.3625 13.8082 10.2922 13.8581C10.2922 12.4481 10.2922 11.0775 10.2922 9.70352C10.2971 9.6077 10.2901 9.51169 10.2712 9.41728C10.2294 9.24591 10.118 9.09456 9.95856 8.99269C9.79913 8.89081 9.60309 8.84568 9.40857 8.86608C9.21404 8.88648 9.03495 8.97095 8.90611 9.10306C8.77727 9.23517 8.7079 9.40547 8.71149 9.58085C8.70784 10.9161 8.70784 12.2519 8.71149 13.5882V13.8278ZM9.50319 17.7264C8.21747 17.7264 6.93114 17.7264 5.64421 17.7264C5.11458 17.7264 4.75753 18.0094 4.75388 18.4281C4.75023 18.8468 5.11092 19.1429 5.63142 19.1437C8.212 19.1437 10.7929 19.1437 13.3741 19.1437C13.8964 19.1437 14.2562 18.8485 14.2525 18.4297C14.2489 18.011 13.8872 17.7264 13.3622 17.7264C12.0765 17.7253 10.7901 17.7253 9.50319 17.7264V17.7264Z" fill="white"/>
<path d="M18.1309 7.09054H12.1497C11.4475 7.09054 11.0859 6.76341 11.085 6.13696V0.781006L18.1309 7.09054Z" fill="white"/>
</svg>
